<?xml version="1.0" standalone="no"?>
<!DOCTYPE svg PUBLIC "-//W3C//DTD SVG 1.1//EN" "http://www.w3.org/Graphics/SVG/1.1/DTD/svg11.dtd">
<svg xmlns="http://www.w3.org/2000/svg">
<metadata>Copyright (C) 2012 by original authors @ fontello.com</metadata>
<defs>
<font id="fontello" horiz-adv-x="1000" >
<font-face font-family="fontello" font-weight="400" font-stretch="normal" units-per-em="1000" ascent="850" descent="-150" />
<missing-glyph horiz-adv-x="1000" />
<glyph glyph-name="duckduckgo" unicode="&#xe866;" d="M0 349q0 215 141 356t356 141 356-141 141-356q0-182-103-313t-280-171q-9 17-34 52t-35 56q64-26 86-26 16 0 16 50 0 93-17 93-25 0-97-55 0 14-15 12l-5 0q-26 69-26 123 0 15 3 30 92-45 148-45 31 0 94 18t63 39q0 13-17 13-26 0-75-7t-75-7q-27 0-60 14t-33 38q0 5 2 8t5 3 6 0 8-1 9-1q9 0 26-3t25-3q31 0 127 37t96 57q0 12-19 17t-35 5q-14 0-42-8t-61-18-44-14q4 20 4 32 0 47-25 110t-58 93q-27 24-72 33-28 36-88 66t-106 30q-9 0-28-4t-24-5l-22-31 6-1q7 0 22 2t22 2q34 0 78-14-28-14-49-19-2-1-13-3t-19-3-14-6-7-12q56 6 84 6 38 0 60-7-77-9-119-53t-42-121q0-27 4-50 19-120 73-358 33-154 37-170l1-4q-160 50-251 186t-91 308z m283 124q0-6 3-12-1 16 18 28t36 12q8 0 20-5-10 13-29 13-17 0-33-10t-16-27z m33-75q0 13 11 24t24 11 24-11 11-24-11-24-24-11-24 11-11 24z m40 11q0-8 9-8t9 8q0 9-9 9t-9-9z m168 87q8 13 37 13 13 0 33-10-10 22-35 22-31 0-35-25z m23-78q0 12 9 21t20 9q12 0 21-9t9-21q0-11-9-20t-21-9q-11 0-20 9t-9 20z m35 10q0-8 7-8 8 0 8 8 0 7-8 7-7 0-7-7z" horiz-adv-x="992" />
<glyph glyph-name="aim" unicode="&#xe800;" d="M0 432q0 105 53 188t137 132 181 74 195 25q29 0 43-1 115-6 226-41 87-28 166-75t147-109 108-147 41-176q0-13-1-19-11-152-121-256t-269-147q-107-30-229-30l-8 0q-201 0-315 53-6 2-7 6 0 2 3 2 1 0 4-1t4-1q50-12 89-12 24 0 47 5t44 20 21 40q0 12-6 24-9 16-59 34t-114 34-76 20q-80 26-139 66 0 1 4 10t6 15 7 12 9 6l179 0q9 0 17-22t21-44 36-22q18 0 31 12t13 30q0 11-84 199t-106 231q-6 15-16 15-8 0-13-9l-3-6q-8-15-52-114l-107-238-7-15q-95 109-95 234z m218-166q0 10 54 129l5 3q6 0 33-64t27-70q0-4-5-4l-108 0q-5 0-5 5z m307-123q0-45 47-45t47 45l0 388q0 45-47 45t-47-45l0-388z m185 0q0-45 47-45t47 45l0 181 92-185q13-29 41-29 32 0 46 29l91 185 0-181q0-45 47-45 48 0 48 45l0 388q0 45-47 45-35 0-47-29l-138-302-133 302q-14 29-48 29-46 0-46-45l0-388z" horiz-adv-x="1294" />
<glyph glyph-name="delicious" unicode="&#xe801;" d="M0-150l0 501 501 0 0-501-501 0z m509 499l0 501 500 0 0-501-500 0z" horiz-adv-x="1009" />
<glyph glyph-name="paypal" unicode="&#xe802;" d="M0-41l194 891 438 0q50 0 97-18t85-56 53-95-1-135q-29-136-129-214t-234-78l-183 0-63-296-257 0z m100-109l257 0 63 295 184 0q134 0 233 78t129 214q28 135-43 219 33-74 12-170-29-136-129-214t-234-78l-183 0-63-295-216 0z m257 575l83 0 42 183 125 0q2 0 17-3-8 29-32 47t-56 18l-125 0z m125 1q48 2 90 37t53 84q0 2 1 6t1 6l-114 0z" horiz-adv-x="974" />
<glyph glyph-name="money" unicode="&#xe8bb;" d="M238 378c14 16 35 21 65 24l0-85c-50 5-75 9-75 39 0 8 3 15 10 23z m108-241l0 91c59-5 78-9 78-35 0-30-24-49-78-56z m70 244c30-16 36-24 36-38l8-4 45 90-6 5c-6-5-10-8-14-8s-8 0-13 4c-61 24-90 35-126 35l0 18c0 9 5 15 20 19l0 9-79 0 0-9c14-4 16-11 16-19l0-15c-96-4-153-50-153-123 0-74 40-100 153-110l0-96c-78 8-116 38-116 64l-8 4-41-94 6-4c6 4 9 5 13 5 1 0 6 0 9-3 48-24 94-38 138-40l0-19c0-10-3-16-16-20l0-9 79 0 0 9c-15 4-20 9-20 20l0 19c96 5 159 54 159 126 0 70-53 106-149 115l-10 0 0 88c23-1 46-8 70-20z m41 181c116-50 198-165 198-300 0-181-146-328-326-328-181 0-328 146-328 328 0 135 81 250 198 300l-81 179c0 18 11 25 28 25l366 0c16 0 28-6 28-25z" horiz-adv-x="654" />
<glyph glyph-name="flattr" unicode="&#xe803;" d="M0-37l0 514q0 179 85 278t260 99l548 0q-5-5-53-53t-100-101-109-110-95-93-42-37q-15 0-15 16l0 156-48 0q-59 0-95-7t-63-26-39-57-12-96l0-262z m67-117q5 5 53 53t100 101 109 110 95 93 42 37q15 0 15-16l0-156 48 0q116 0 162 36t46 150l0 262 224 223 0-514q0-179-85-278t-260-99l-548 0z" horiz-adv-x="959" />
<glyph glyph-name="android" unicode="&#xe804;" d="M0 201l0 269q0 26 19 45t44 19q26 0 45-19t19-45l0-269q0-26-19-45t-45-19-45 19-19 45z m173-100l0 418 574 0 0-418q0-26-19-45t-45-19l-448 0q-26 0-45 19t-19 45z m0 465l574 0q0 115-85 189t-202 74-202-74-85-189z m101 316q0 8 7 8 3 0 7-2l49-89-15-8q-48 88-48 91z m15-807q0 27 19 45t47 18q25 0 44-19t19-44l0-202q0-28-19-46t-47-18q-26 0-45 19t-19 45l0 202z m5 620q0 16 12 28t28 12 28-12 12-28q0-17-12-29t-29-12q-16 0-28 12t-12 28z m208-620q0 27 20 45t47 18q26 0 45-19t19-45l0-202q0-28-19-46t-47-18q-26 0-45 19t-19 45l0 202z m45 620q0 16 12 28t28 12 28-12 12-28q0-17-12-29t-28-12-28 12-12 28z m36 104q2 3 14 29t24 44 19 19 7-9l0-2-48-89z m211-598l0 268q0 26 19 45t45 19 45-19 19-45l0-268q0-26-19-45t-45-19-45 19-18 45z" horiz-adv-x="920" />
<glyph glyph-name="eventful" unicode="&#xe805;" d="M0 351q0 107 29 202 28 92 83 159 56 67 135 102 81 36 178 36 128 0 217-61 90-59 136-157 46-95 46-196 0-93-47-120t-132-27l-423 0q0-85 30-148 29-65 76-96 50-33 106-33 41 0 71 10 31 10 62 33 31 22 56 47t66 69q15 16 47 16 34 0 54-21 21-21 21-58 0-32-23-78-21-43-70-85-46-41-116-68-71-27-161-27-209 0-325 135-116 136-116 366z m222 78l392 0q-7 125-60 188-51 62-136 62-82 0-133-63-52-63-63-187z" horiz-adv-x="824" />
<glyph glyph-name="smashmag" unicode="&#xe806;" d="M0 612q0 25 16 46t41 27l197 47q-63-72-63-168 0-185 253-283 28-11 54-25t55-34 46-47 18-56q0-43-35-67t-80-24q-58 0-121 23t-105 61l-79-179q56-31 144-61-10-2-32-9t-39-10-32-4q-25 0-46 16t-27 41l-164 687q-2 12-2 18z m419-46q0 38 35 59t76 21q49 0 110-18t88-47l61 170q-90 48-186 63 2 0 45 12t72 18 43 6q25 0 46-16t27-41l164-687q2-12 2-18 0-25-16-46t-41-27l-145-34q47 70 47 152 0 111-71 183t-185 110q-171 58-171 140z" horiz-adv-x="1000" />
<glyph glyph-name="plus-1" unicode="&#xe8d9;" d="M550 400q30 0 30-50t-30-50l-210 0 0-210q0-30-50-30t-50 30l0 210-210 0q-30 0-30 50t30 50l210 0 0 210q0 30 50 30t50-30l0-210 210 0z" horiz-adv-x="580" />
<glyph glyph-name="gplus" unicode="&#xe807;" d="M0 32q0 87 89 155t215 68l54 0q-42 40-42 86 0 29 16 58-10-1-29-1-104 0-170 65t-66 160q0 91 82 159t187 68l310 0-69-50-98 0q47-18 74-68t27-111q0-93-88-162-37-29-48-46t-11-42q0-19 27-48t54-49q61-43 85-88t24-113q0-90-82-157t-222-67q-133 0-225 50t-92 132z m112 33q0-69 59-118t146-49q119 0 173 44t54 117q0 19-4 32-3 11-7 21t-12 19-14 16-20 17-21 15-25 18-26 18q-39 12-77 12-90 1-158-47t-68-114z m66 559q11-79 61-136t110-58q59-2 94 52t25 133-60 134-110 57-95-51-25-131z m555-24l0 50 200 0 0 200 50 0 0-200 201 0 0-50-201 0 0-201-50 0 0 201-200 0z" horiz-adv-x="1184" />
<glyph glyph-name="plus" unicode="&#xe877;" d="M408 443l229 0 0-173-229 0 0-231-179 0 0 231-229 0 0 173 229 0 0 219 179 0 0-219z" horiz-adv-x="636" />
<glyph glyph-name="wikipedia" unicode="&#xe808;" d="M0 677l0 21 2 2 249 0 2-2 0-20q0-8-10-8l-26-1q-33-1-33-20 0-13 7-28 50-122 222-484l6-1 111 221q-13 30-22 49l-76 150-20 40q-26 51-34 61t-33 14q-14 2-14 7l0 21 3 2 197 0 5-1 0-21q0-8-10-8l-15-2q-13-2-19-5t-6-12 4-18 15-31l73-150 81 162q16 32 5 43-6 8-37 11l-9 1q-4 0-7 3-3 1-3 6l0 19 3 2q57 1 186 0l2-2 0-20q0-8-9-8-22-1-31-5t-17-16q-23-34-30-48l-105-196-3-7 128-262 8-3 202 481q12 28-3 41-13 12-39 13l-19 1q-3 0-6 3-4 2-4 6l0 20 3 2 229 0 2-2 0-20q0-7-9-9-46-2-66-19-20-16-34-49l-250-567q-10-23-23-31t-24 1-23 31q-38 75-122 263-105-216-131-264-41-71-71-1-32 75-130 285t-130 287q-16 42-28 52-11 10-52 13-14 2-14 7z" horiz-adv-x="1106" />
<glyph glyph-name="lanyrd" unicode="&#xe809;" d="M0 739q-1 11 6 21t14 17 24 16 27 13 33 14 35 15q54 22 97 16t54-35q25-67 103-320t116-362q268 88 326 105 16 6 38 4t33-23q23-47 33-99t1-75q-19-15-60-32t-76-29-90-29-74-23q-10-3-38-13t-53-19-58-19-61-18-54-12-45-4-26 9q-18 18-32 52t-29 87-19 66q-42 125-113 339t-104 313q-6 13-7 24z" horiz-adv-x="940" />
<glyph glyph-name="minus" unicode="&#xe8dc;" d="M550 400q30 0 30-50t-30-50l-520 0q-30 0-30 50t30 50l520 0z" horiz-adv-x="580" />
<glyph glyph-name="calendar" unicode="&#xe80a;" d="M0-102l0 775 92 0q0 29 1 39t4 32 12 30 25 17 41 8 41-8 24-16 12-31 4-32l0-39 55 0 0 39t4 32 12 31 24 16 41 8q18 0 31-4t22-9 15-17 9-19 4-25 2-25l0-28 54 0 0 28t2 25 4 25 9 19 15 17 22 9 31 4q24 0 41-8t24-16 12-31 4-32l0-39 92 0 0-775-776 0z m65 177l0-112 139 0 0 112-139 0z m0 22l139 0 0 119-139 0 0-119z m0 141l139 0 0 130-139 0 0-130z m0 151l139 0 0 112-139 0 0-112z m71 203q0-33 37-33t37 33l0 130q0 33-37 33t-37-33l0-130z m89-517l0-112 152 0 0 112-152 0z m0 22l152 0 0 119-152 0 0-119z m0 141l152 0 0 130-152 0 0-130z m0 151l152 0 0 112-152 0 0-112z m126 203q0-33 37-33 38 0 38 33l0 130q0 33-38 33-37 0-37-33l0-130z m47-517l0-112 152 0 0 112-152 0z m0 22l152 0 0 119-152 0 0-119z m0 141l152 0 0 130-152 0 0-130z m0 151l152 0 0 112-152 0 0-112z m168 203q0-33 38-33 37 0 37 33l0 130q0 33-37 33-38 0-38-33l0-130z m5-517l0-112 140 0 0 112-140 0z m0 22l140 0 0 119-140 0 0-119z m0 141l140 0 0 130-140 0 0-130z m0 151l140 0 0 112-140 0 0-112z" horiz-adv-x="776" />
<glyph glyph-name="stumbleupon" unicode="&#xe80b;" d="M0 143l0 181 224 0 0-179q0-28 20-49t49-21 50 20 21 49l0 423q0 117 87 200t206 83 206-83 87-201l0-92-134-40-89 42 0 80q0 29-20 49t-49 20-50-20-21-49l0-417q0-120-86-205t-206-85q-121 0-207 86t-86 208z m724-3l0 183 89-42 134 40 0-184q0-29 20-50t49-21 49 21 20 50l0 187 224 0 0-181q0-121-86-207t-207-86-207 85-86 205z" horiz-adv-x="1309" />
<glyph glyph-name="fivehundredpx" unicode="&#xe80c;" d="M0 236l119 0q5-40 30-64t65-24q48 0 77 33t29 82q0 48-28 79t-75 31q-38 0-65-25t-51-25q-53 0-80 2 9 52 29 161t29 165l330 0 0-98-243 0q-14-71-24-134l3 0q17 21 51 32t66 11q113 0 160-103 24 60 72 94t111 34q49 0 91-20t66-42 63-66q3-3 5-5t4-5l5-5q35 40 50 56t46 41 62 35 70 10q90 0 145-61t55-152q0-93-55-156t-147-63q-116 0-226 131-7-7-39-39t-43-40-37-26-52-23-58-6q-63 0-111 33t-74 92q-62-128-203-128-95 0-157 48t-62 139z m515 30q0-42 26-68t68-26q75 0 155 95-34 35-48 49t-48 33-64 20q-39 0-64-31t-25-71z m389 0q27-29 46-46t49-33 62-16q43 0 68 28t25 71q0 42-26 70t-68 28q-25 0-49-12t-37-22-38-36-32-33z" horiz-adv-x="1262" />
<glyph glyph-name="pinterest" unicode="&#xe80d;" d="M0 491q0 63 27 125t76 115 130 86 179 33q159 0 261-98t102-231q0-171-87-283t-224-112q-45 0-85 21t-56 51l-40-158q-5-19-13-39t-18-38-19-34-19-30-17-24-13-17l-6-8q-3-4-8-3t-6 6q0 1-2 14t-3 28-3 38-1 45 3 48 8 48q11 47 74 313-8 16-13 39t-5 37l-1 15q0 64 33 107t79 43q37 0 58-25t21-62q0-23-9-57t-23-77-20-71q-10-45 18-78t74-33q79 0 131 90t52 217q0 97-63 159t-176 62q-126 0-205-81t-79-194q0-67 38-113 13-15 8-32-2-5-6-23t-6-23q-2-11-10-15t-18 1q-59 24-89 83t-30 137z" horiz-adv-x="774" />
<glyph glyph-name="bitcoin" unicode="&#xe80e;" d="M16 471q33 132 126 228t221 133 260 4 228-126 133-221 4-260-126-228-221-133-260-4-228 126-133 221-4 260z m228-271l72-18q7-1 20-5t19-5l-23-91 55-14 22 90q6-2 21-6t23-6l-22-90 55-13 22 91q48-8 86-8t66 21 43 61q32 90-51 133 60 13 70 80 13 86-110 126l23 91-55 13-22-88q-8 2-23 6t-21 6l22 88-55 14-22-90q-15 2-35 8l-76 19-14-59 39-9q28-7 26-32l-26-103q2 0 6-2-1 1-3 1t-3 1l-36-144q-5-18-25-13l-40 10z m183 23l30 121q1 0 20-4t28-7 28-9 29-13 21-17 15-22-1-28q-3-11-9-19t-15-12-19-7-23-3-24 2-24 4-22 5-20 5-15 4z m44 176l27 110q3-1 13-3t17-4 18-5 19-7 18-9 15-11 12-14 6-17-2-20q-3-13-11-22t-19-12-23-5-27 1-24 4-23 6-17 4z" horiz-adv-x="1001" />
<glyph glyph-name="w3c" unicode="&#xe80f;" d="M0 647l77 0 107-363 72 244-35 119 77 0 107-363 107 363 290 0 0-36-109-188q58-20 86-67 30-50 30-114 0-82-43-137t-112-55q-51 0-90 33-39 34-56 89l60 25q13-34 35-54 20-19 51-19t52 34q22 34 22 84 0 52-23 83-27 34-83 34l-30 0 0 36 103 178-124 0-7-12-152-511-7 0-110 370-111-370-7 0z m818-417l18-50q15-33 33-58 42-58 94-67 45-9 88 18 19 12 35 31 20 20 28 36 4 7 11 20l-11 59q-8-16-16-28t-12-17l-4-4q-34-37-61-49-33-15-68-11-27 2-60 24-36 31-43 43-13 18-32 53z m27 195q0 84 33 146 16 30 38 48t43 20q35 4 70-26 18-15 37-50l44 87 12-76-44-85q-8 16-19 30t-18 20l-8 6q-31 22-64 15-24-5-48-30t-35-59q-19-55-19-106-1-40 5-63-12 22-19 53t-7 51z" horiz-adv-x="1125" />
<glyph glyph-name="foursquare" unicode="&#xe810;" d="M0 410q0 105 77 180t185 75q85 0 153-48t95-124l66 64 158-152 437 446 0-405-267-206 34-36-363-353-316 307q-107 2-182 76t-75 177z m37 0q0-90 65-153t157-63q33 0 65 9l220-195 585 460 1 302-578-596-90 146q20 43 20 90 0 89-66 153t-158 64-157-64-65-153z m48-2q0 70 50 120t120 50 120-49 50-120q0-70-50-120t-120-50-120 50-50 120z" horiz-adv-x="1169" />
<glyph glyph-name="html5" unicode="&#xe811;" d="M0 649l699 0-66-710-284-81-284 81z m65 60l0 133 45 0 0-44 40 0 0 44 44 0 0-133-44 0 0 44-40 0 0-44-45 0z m65-205l24-266 1 2 300 0-10-113-96-27-97 28-6 68-88 0 12-136 179-51 179 51 25 267-319 0-8 89 335 0 8 88-439 0z m84 293l0 45 122 0 0-45-39 0 0-88-44 0 0 88-39 0z m141-88l0 133 47 0 27-46 28 46 47 0 0-133-43 0 0 68-32-50 0 1-30 47 0-66-44 0z m172 0l0 133 44 0 0-88 62 0 0-45-106 0z" horiz-adv-x="699" />
<glyph glyph-name="ie" unicode="&#xe812;" d="M1-2q-3 36 7 60 39 140 92 239 114 216 313 352l0 14q-59-25-119-66t-102-81-76-78-51-60l-17-23q-2 59 16 115t45 94 55 67 47 43l19 13q4 2 11 6t28 14 44 19 55 17 64 12 70 2 74-12q64 47 129 73t98 29l33 3q50 5 78-17t31-55-1-68-12-60l-9-24-5 5q21 57 21 94t-18 57-37 29-37 10l-16 2q-4 0-12-1t-32-5-49-13-61-25-69-41q69-11 123-42t86-71 55-85 31-89 13-78 4-56l-1-22-557 0q-3-42 11-73t34-46 41-23 36-9l15-1q4 0 12 1t27 6 35 14 31 29 22 47l292 0q-16-59-47-107t-68-78-78-51-79-32-68-16-49-7l-19 0q-78 0-107 6-60-47-127-74t-104-30l-36-3q-46 0-78 24t-42 56-13 68z m76 6q-1-24 3-43t8-29l4-9q4-3 11-8t34-14 57-8 82 17 108 50q-8 2-22 6t-51 18-69 32-67 48-54 65q-22-34-33-67t-12-57z m283 424l265 0q1 36-12 63t-32 39-39 19-33 8l-14 1q-6 0-15-1t-33-8-42-19-33-39-14-63z" horiz-adv-x="943" />
<glyph glyph-name="call" unicode="&#xe813;" d="M2 593q2 17 15 32l120 120q14 12 21-4l97-182q8-16-5-31l-44-44q-12-12-14-31 0-30 31-77t61-80l31-32q14-14 36-35t73-54 80-34q19 0 32 13l52 52q14 14 30 4l175-103q7-4 8-11t-4-12l-120-120q-15-13-32-15-49-7-111 14t-114 55-98 69-72 60l-26 25q-10 10-27 28t-58 69-71 101-52 112-15 112z" horiz-adv-x="800" />
<glyph glyph-name="grooveshark" unicode="&#xe814;" d="M0 350q0 136 67 251t182 182 251 67 251-67 182-182 67-251-67-251-182-182-251-67-251 67-182 182-67 251z m129 0q0-65 36-77 5-2 17-4 42-1 85 40 41 36 58 90 25 77 10 200-2 12-2 17-3 6 0 9 1 3 13-1 38-10 78-29 46-21 102-70 45-39 87-89 33-39 80-104 41-57 88-77 29-10 48-7t29 20 15 37 5 45q0 48-12 96-3 12-8 28-14 43-41 84-52 79-136 124t-178 45q-66 0-125-22-80-28-141-89t-89-142q-1-5-4-15t-5-14q-12-50-11-96z" horiz-adv-x="1000" />
<glyph glyph-name="ninetyninedesigns" unicode="&#xe815;" d="M0 710q-1 5 3 10t9 6q11 2 31 7t28 7q0 17 1 50t1 49q2 12 13 12 14 0 14-14-2-60-2-91 11 2 35 7t35 8q18 4 55 10t56 10q402 69 794 72 6 0 10-5t3-11q0-11-2-33t-2-33q42-3 128-11 5 0 9-5t3-10q-23-137-68-412t-68-413q50-8 76-12 8-1 11-8t-1-13-10-6l-3 0q-13 2-39 7t-39 7q-1-12-5-31-2-9-10-11-1-1-4-1l-4 0q-297 75-600 117-100 2-149 2-55 0-165-2l0-1q1-1 1-2 1-6-4-11t-11-5q-11 0-12 11 0 5-2 16t-3 17l-13 0q-8 0-11 7t1 14 12 7l8 0-6 54q-6 40-25 195t-36 252-43 191z m30-8q21-78 43-201-3 70-3 209-16-2-40-8z m67-91q1-193 21-424 3-40 11-109 1-9 3-19t4-22 3-19q67-3 192-13t182-13q354-20 483-35 11 160 33 455t30 411q-468-4-960-107-1-53 0-105z m92-163q0-68 43-111t109-43q69 0 109 43l2 0q-13-70-65-111-41-33-101-38-40-4-52-2l0-75q35 0 57 2 107 8 171 68 87 82 87 233 0 94-47 154t-132 60q-78 0-129-53t-51-126z m94 6q0 45 23 74t59 29l1 0q43 0 65-36t21-91q0-16-5-26-26-42-81-42-38 0-60 26t-22 66z m89-477l96-10 373-40q140-30 209-48l3 18q-55 9-165 25-249 35-516 55z m192 471q0-68 43-111t108-43q69 0 110 43l1 0q-13-70-64-111-42-33-102-38-40-4-52-2l0-75q35 0 57 2 107 8 171 68 87 80 87 233 0 94-47 154t-131 60q-78 0-130-53t-52-126z m94 6q0 45 23 74t58 29l1 0q43 0 65-36t21-91q0-16-5-26-26-42-81-42-38 0-60 26t-22 66z m357-524q28-4 43-6 20 120 65 392t69 417q-13 1-36 3t-42 4-36 3q-6-85-27-367t-31-436q0-5-4-9-1 0-1-1z" horiz-adv-x="1220" />
<glyph glyph-name="forrst" unicode="&#xe816;" d="M0-150l417 1000 417-1000-369 0 0 135 170 85-13 55-157-79 0 67 98 52-14 57-84-45 0 87-92 0 0-157-86 59-16-64 102-70 0-182-373 0z" horiz-adv-x="834" />
<glyph glyph-name="colon" unicode="&#xe8b8;" d="M0 526c0 54 43 98 98 98 54 0 98-44 98-98 0-55-44-98-98-98-55 0-98 43-98 98z m0-351c0 54 43 98 98 98 54 0 98-44 98-98 0-55-44-98-98-98-55 0-98 43-98 98z" horiz-adv-x="195" />
<glyph glyph-name="semicolon" unicode="&#xe8b9;" d="M0 574c0 54 43 98 98 98 54 0 98-44 98-98 0-55-44-98-98-98-55 0-98 43-98 98z m0-534c49 24 75 54 83 101-40 9-65 40-65 79 0 49 36 85 85 85 59 0 100-48 100-113 0-83-71-169-203-164l0 11z" horiz-adv-x="203" />
<glyph glyph-name="digg" unicode="&#xe817;" d="M0 152l0 372q0 13 13 13l176 0 0 129q0 14 13 14l98 0 0-514q0-14-12-14l-288 0z m109 83l67 0q13 0 13 14l0 206-67 0q-13 0-13-14l0-206z m225-83l0 372q0 13 13 13l98 0 0-371q0-14-12-14l-99 0z m0 445l0 69q0 14 12 14l99 0 0-69q0-14-12-14l-99 0z m149-445l0 372q0 13 13 13l288 0 0-504q0-13-13-13l-288 0 1 69q0 14 12 14l176 0 0 49-189 0z m110 83l67 0q12 0 12 14l0 206-67 0q-12 0-12-14l0-206z m229-146q0 14 13 14l176 0 0 49-189 0 0 372q0 13 13 13l287 0 0-504q0-13-12-13l-288 0 0 69z m109 146l67 0q13 0 13 14l0 206-67 0q-13 0-13-14l0-206z" horiz-adv-x="1122" />
<glyph glyph-name="info" unicode="&#xe888;" d="M469 78l0 349-121 0 0-349 121 0z m-61 410c40 0 71 31 71 73 0 39-31 70-71 70s-71-31-71-70c0-40 31-73 71-73z m-1 269c224 0 406-181 406-406 0-224-183-406-406-406-225 0-406 183-406 406 0 225 181 406 406 406z" horiz-adv-x="813" />
<glyph glyph-name="spotify" unicode="&#xe818;" d="M0 350q0 136 67 251t182 182 251 67 251-67 182-182 67-251q0-101-38-192t-107-160q-60 73-146 114t-183 41q-107 0-199-50t-151-135q-83 71-130 170t-47 211z m164 144q0-17 12-30t30-13q6 0 9 1 144 58 298 58t298-58q1 0 4-1t5-1q17 0 30 13t13 30q0 25-23 37-159 63-326 63-170 0-329-64-20-13-20-36z m46-149l6-16q8-13 23-13 3 0 9 2 127 55 265 55 139 0 267-56 4-2 7-2 15 0 23 13l5 17q0 13-10 21-138 62-292 62-153 0-293-62-10-10-10-21z m48-144q10-25 31-16 108 51 224 51 112 0 219-48 24-13 35 12 5 13 0 23t-14 15q-106 53-240 53-128 0-244-55-19-10-11-35z m61-317q37 48 92 76t117 28q114 0 193-86-104-52-220-52-94 0-181 34z" horiz-adv-x="1000" />
<glyph glyph-name="reddit" unicode="&#xe819;" d="M0 353q0 62 50 106t113 44q62 0 105-36l5 0q134 82 335 82l5 4 70 267 242-36q0-1 2-1 1 0 0 1 2 1 12 16t15 19q34 32 82 32 49 0 83-33t34-82-34-84-83-35q-57 0-87 39t-30 97q-2-1-98 13t-110 17l-3 0q-2-2-17-54t-30-109-18-64l0-3 5-4q72 0 148-21t131-58l3-2q1 1 2 1t2 1q25 18 36 25t30 13 43 6q68 0 116-48t48-117q0-47-27-86t-70-60q0-195-260-303-41-18-56-23-32-10-91-19t-93-9q-120 0-231 35-2 2-72 38-95 51-153 116t-58 156l-5 0q-33 17-59 50l-9 12q-15 27-19 46t-4 51z m34-12q0-66 57-112 5 59 48 116t101 101q-37 26-82 26-49 0-87-41t-38-91z m102-146q0-54 31-104t80-86 103-60 105-34q75-14 146-14 123 0 233 40t185 123l-3 0q30 38 43 69t13 73q0 54-27 103t-70 84-92 61-100 39q-85 23-181 23-74 0-152-18t-150-54-119-100-46-144z m186 73q0 37 23 60t60 23 62-23 25-60q0-36-26-60t-62-24-59 24-23 60z m36-164l44 0q25-45 80-69t112-24q58 0 110 24t84 69l41 0q-25-62-93-96t-142-34q-72 0-142 35t-94 96z m336 164q0 38 23 60t61 22q34 0 58-24t24-58-24-59-58-25q-37 0-61 24t-24 61z m255 468q0-35 25-60t60-25q36 0 59 25t23 61q0 34-24 58t-58 24-60-25-26-58z m14-281q55-36 95-93t56-120q59 43 59 96 0 58-36 100t-93 42q-45 0-82-26z" horiz-adv-x="1205" />
<glyph glyph-name="guest" unicode="&#xe81a;" d="M0 108q0 22 12 64 23 87 87 158t148 103q-79 63-79 161 0 86 63 146t149 60 149-60 63-146q0-97-77-160 106-38 177-127t71-198q0-92-73-106-3-10-13-26-6-16-24-29t-49-21-50-12-57-9-39-5q-2 0-7-1t-7-1l-120 0q-51 0-129 17t-89 45q-17 17-25 42-25 5-42 21-38 15-38 84z" horiz-adv-x="760" />
<glyph glyph-name="question" unicode="&#xe889;" d="M405 618c-105 0-160-58-160-163l130 0c0 39 9 58 29 58 19 0 28-19 28-58 0-49-24-66-70-66-4 0-11 0-20 1l0-123 130 0 0 51c64 16 96 63 96 136 0 96-69 163-163 163z m1-405c-41 0-76-35-76-78 0-41 35-78 76-78s76 36 76 78-35 78-76 78z m0 544c224 0 406-181 406-406 0-224-183-406-406-406-225 0-406 183-406 406 0 225 181 406 406 406z" horiz-adv-x="813" />
<glyph glyph-name="at" unicode="&#xe8b7;" d="M770 548c16-41 25-88 25-139 0-68-18-133-46-181-39-61-94-93-163-93-28 0-53 8-70 21-13 9-24 21-30 36-26-34-69-55-114-55-51 0-95 19-123 58-28 35-41 84-41 141s16 110 49 148c34 41 83 64 141 64 35 0 68-15 90-38l8 26 85 0-18-259c-1-21 1-36 9-44 4-5 10-8 20-8 76 0 103 123 103 183 0 73-24 133-68 176-50 51-121 76-209 76-84 0-158-26-214-76-65-59-101-143-101-245 0-86 31-165 85-221 53-53 123-81 205-81 95 0 168 14 241 46l15 8 0-96-6-3c-69-34-150-50-251-50-108 0-200 33-269 96-81 74-124 184-124 309 0 119 40 220 116 294 38 36 83 65 133 84 53 21 109 31 169 31 114 0 215-38 284-106 30-29 54-64 69-103z m-384-318c30 0 54 14 69 40 14 25 18 61 18 85 0 31-6 56-16 74-14 20-34 29-60 29-29 0-50-13-64-39-13-21-19-53-19-83 0-33 8-106 73-106z" horiz-adv-x="795" />
<glyph glyph-name="gowalla" unicode="&#xe81b;" d="M0 338l0 103q0 87 86 200t171 160q78 44 187 44 44 0 89-10t86-31 67-58 26-85q0-13-2-25t-7-24-9-21-14-21-14-19-18-20-17-17-19-18-18-16l168 0q2-72 2-108 0-253-42-326-35-61-95-108t-128-70q-39-15-56-15l-84 0q-3 0-48 17-120 53-120 174 0 4 1 11t1 10q-134 69-180 215-13 42-13 56z m146 130q0-40 10-81t29-79 53-62 77-24q12 0 40 15t50 15q14 0 51-11t37-20q0-21-26-21-130 0-130-76 0-58 42-88t103-30q47 0 92 17t73 50q42 50 42 164 0 19-1 56t-1 55q0 48 5 80l-193 0q-1-8-1-23 0-11 1-34t1-35q0-35-8-56-5-1-17-1-48 0-80 33t-44 75-12 89q0 45 12 91t43 84 78 38q10 0 21-3-4-22-4-34 0-35 19-58t53-23 57 23 23 58q0 41-31 70t-70 40-79 11q-135 0-223-85t-88-219z" horiz-adv-x="764" />
<glyph glyph-name="appstore" unicode="&#xe81c;" d="M1 351q-1-18-1-36 0-68 20-144 26-97 83-184 89-136 172-137 30 0 78 21t95 21l4 0q46 0 91-20 47-22 76-22 49 1 91 41t85 104q31 48 65 121-50 19-85 57t-48 85q-10 35-9 70l0 24q4 48 34 92t79 71q-38 48-89 75t-103 27q-48 0-106-22t-86-22q-30 0-91 22t-102 22q-58 0-115-34t-96-93q-37-56-44-139z m415 258q-3 15-3 30 0 65 53 129 27 33 70 56t83 26q2-15 2-30 0-69-50-132-28-36-70-58-41-22-80-21l-4 0z" horiz-adv-x="860" />
<glyph glyph-name="blogger" unicode="&#xe81d;" d="M0 165l0 369q0 130 93 223t223 93l221 0q65-8 139-57t105-115q1-2 5-10t5-10 4-10 4-13 4-16 4-22 4-29q9-70 26-85 14-13 71-15t65-8l14-11 8-17 3-14-2-256q-1-130-93-223t-222-93l-363 0q-130 0-223 93t-93 223z m259 5q0-25 18-43t43-18l356 0q25 0 43 18t18 43-18 43-43 18l-356 0q-25 0-43-18t-18-43z m0 362q0-25 18-43t43-18l175 0q25 0 43 18t18 43-18 43-43 18l-175 0q-25 0-43-18t-18-43z" horiz-adv-x="996" />
<glyph glyph-name="cc" unicode="&#xe81e;" d="M0 350q0 98 38 191 37 90 110 163 144 146 351 146 209 0 357-146 71-71 107-162 37-89 37-192 0-104-36-192-36-89-107-159-74-72-166-111-94-38-192-38-97 0-190 38-89 37-162 110t-110 162-37 190z m90 0q0-79 32-155 31-75 91-133 60-60 133-89 72-31 155-31 81 0 156 31 74 31 136 90 117 114 117 287 0 85-31 157-30 76-88 132-120 121-290 121-171 0-288-120-59-59-91-134-32-76-32-156z m125 0q0 71 42 113 41 42 105 42 92 0 133-72l-67-35q-11 24-27 31-15 9-29 9-67 0-67-88 0-39 17-64 18-24 50-24 44 0 62 42l62-31q-21-36-55-57-35-21-77-21-67 0-108 41t-41 114z m289 0q0 71 42 113t105 42q93 0 132-72l-66-35q-11 23-26 31-17 9-30 9-67 0-67-88 0-41 17-64 17-24 50-24 43 0 61 42l63-31q-22-37-56-57-35-21-75-21-69 0-109 41-41 41-41 114z" horiz-adv-x="1000" />
<glyph glyph-name="dribbble" unicode="&#xe81f;" d="M0 350q0 136 67 251t182 182 251 67 251-67 182-182 67-251-67-251-182-182-251-67-251 67-182 182-67 251z m83 0q0-156 105-275 48 94 152 179t203 107q-15 35-29 63-172-55-372-55-39 0-58 1 0-4-1-10t-1-10z m13 103q22-2 65-2 167 0 317 45-76 135-167 225-79-40-136-111t-80-157z m149-432q113-88 255-88 74 0 147 28-20 171-78 331-92-20-186-101t-139-170z m153 732q88-91 163-227 136 57 205 145-116 96-266 96-51 0-102-14z m199-298q15-32 34-81 74 7 161 7 62 0 123-3-8 136-98 242-65-97-220-165z m59-151q51-148 69-304 79 51 129 131t60 173q-73 5-133 5-55 0-125-5z" horiz-adv-x="1000" />
<glyph glyph-name="evernote" unicode="&#xe820;" d="M0 541q0 40 15 58 9 14 26 21 18 9 47 9l94 0q15 0 26 11t11 26q0 21-1 44l0 59q0 25 12 44 15 21 50 31 11 6 53 6l19 0q59-2 98-17 38-16 45-62 26 1 48 1 53 0 89-5 97-12 129-24 42-13 53-67 10-55 18-210 5-89 5-147 0-44-3-71-16-172-43-254-14-42-28-69t-28-43-37-23-43-9-59-2q-108 0-146 26t-38 107q0 45 10 72t33 38 47 13q15 1 40 1l28 0q4 0 6-2t1-5-3-8-3-11-2-13q0-9 2-19t1-12-7-3l-20 0t-10-1-10-2-9-3-8-4-6-6-4-9-1-12q0-14 4-23t8-14 18-7 22-2l33 0q57 0 73 14t16 64q0 76-19 103t-57 32q-88 9-119 20-53 20-53 119 0 2-3 2t-3-2q0-67-18-120l-8-24q-11-25-37-26l-6 0q-24 0-54 8-127 16-198 47-24 11-37 40-17 35-36 129t-24 134q-4 33-4 51z m6 119l0 2 183 180q0 1 1 1l-3-6q-11-20-11-48 0-22 1-103 0-10-10-10l-93 0q-34 0-59-11-5-3-9-5z m568-290q21 3 46 3 45-1 81-18 0 85-61 87l-3 0q-30 0-44-20-15-21-19-52z" horiz-adv-x="837" />
<glyph glyph-name="flickr" unicode="&#xe821;" d="M0 350q0 104 73 177t177 73 177-73 73-177-73-177-177-73-177 73-73 177z m552 0q0 104 73 177t177 73 177-73 73-177-73-177-177-73-177 73-73 177z" horiz-adv-x="1052" />
<glyph glyph-name="google" unicode="&#xe822;" d="M0 32q0 87 89 155t215 68l54 0q-42 40-42 86 0 29 16 58-10-1-29-1-104 0-170 65t-66 160q0 91 82 159t187 68l310 0-69-50-98 0q47-18 74-68t27-111q0-93-88-162-37-29-48-46t-11-42q0-19 27-48t54-49q61-43 85-88t24-113q0-90-82-157t-222-67q-133 0-225 50t-92 132z m112 33q0-69 59-118t146-49q119 0 173 44t54 117q0 19-4 32-3 11-7 21t-12 19-14 16-20 17-21 15-25 18-26 18q-39 12-77 12l-4 0q-87 0-153-47-68-48-68-114z m66 559q11-79 61-136t110-58l4 0q56 0 90 52 27 42 27 99 0 16-2 34-10 79-60 134t-110 57l-4 0q-57 0-91-51-27-41-27-98 0-16 2-33z" horiz-adv-x="646" />
<glyph glyph-name="viadeo" unicode="&#xe823;" d="M0 217q0-147 101-257t260-110q158 0 259 110 101 108 101 257 0 78-27 146-40-25-85-34 22-51 22-114 0-76-36-142-37-66-99-101-62-36-135-36-75 0-136 36-63 37-98 101-37 65-37 142 0 117 80 202 80 83 191 83 51 0 98-19 4 39 27 86-57 21-125 21-160 0-266-118-95-107-95-253z m280-253l56-4q74 47 125 109t73 124 31 126q6 41 6 80 0 21-2 40-5 55-13 99t-16 69l-9 25q-22 68-44 119t-32 67l-11 17q39-20 63-48 23-29 28-53 4-20 4-39l0-7q-1-22-6-35l-5-13q4-58 5-112 0-52-5-102-9-100-31-167t-50-122-58-86-55-52-41-29z m275 637q4 40 23 64l18 25q12 14 39 27t48 19l21 6q36 8 67 35t44 51l13 23q41-57 49-129 4-32 3-57 0-34-6-59l-11-45q-12-33-34-60t-37-37l-15-11q-34-20-67-20l-109 53q58 32 101 65t64 58 33 45 15 31l2 10q-18-40-49-73t-62-52-61-33-47-19l-18-5q-25 44-25 79 0 5 1 10z" horiz-adv-x="879" />
<glyph glyph-name="instapaper" unicode="&#xe824;" d="M0-117q102 6 130 27 30 21 30 107l0 666q0 82-30 106-28 23-130 28l0 28 489 0 0-28q-102-4-131-28-30-24-30-106l0-666q0-86 30-107t131-27l0-28-489 0 0 28z" horiz-adv-x="489" />
<glyph glyph-name="weibo" unicode="&#xe825;" d="M0 178q0 161 184 347 117 116 236 162 56 23 97 23 45 0 72-27 26-26 26-72 0-31-12-72-4-14 3-18t16-1l10 4q96 40 170 40t106-42q15-22 15-52 0-31-16-71-7-10-3-17t8-9 15-5q62-19 106-62t44-107q0-59-41-121t-112-113-178-84-229-33q-131 0-248 39t-194 115-77 175z m125-48q10-101 125-161 92-49 209-49 29 0 60 3 153 15 255 97 92 75 92 165 0 9-1 18-10 100-125 160-93 49-210 49-29 0-59-3-101-10-183-51t-126-101q-38-53-38-109 0-9 1-18z m160-62q-13 29-13 59 0 35 18 70 31 64 104 96 45 20 91 20 27 0 54-7 76-20 109-82 17-32 17-66 0-32-15-65-31-71-109-104-44-19-88-19-34 0-67 11-73 23-101 87z m56 19q6-25 30-35 13-6 27-6 12 0 24 4 28 9 43 33 10 16 10 32 0 7-3 15-6 24-30 34-13 5-26 5-12 0-25-4-27-9-41-32-11-16-11-33 0-7 2-13z m141 79q3-9 13-13 5-2 10-2t10 2q11 4 16 13t2 18-12 13q-9 3-20-1t-16-13q-3-6-3-12l0-6z m321 621q-1 5-1 10 0 13 8 25 10 16 29 21 34 7 68 7 51 0 100-15 83-27 143-93t78-153q7-35 7-68 0-51-16-98l0-1q-6-18-23-27-11-5-22-5-7 0-15 2-19 6-27 23-5 11-5 21 0 8 2 15l0 1q11 34 11 70 0 23-4 48-13 62-56 109t-102 66q-35 10-70 10-24 0-49-5-5-1-10-1-14 0-26 8-16 11-20 30z m40-157q-1 5-1 10 0 10 6 21 9 14 26 18 19 4 37 4 67 0 115-53 29-33 38-75 3-17 3-33 0-24-8-48-5-16-20-23-9-5-18-5-7 0-13 2-16 5-24 20-4 9-4 18 0 7 2 13 4 14 4 26 0 28-21 50-22 26-54 26-10 0-20-2-5-1-9-1-11 0-21 7-14 9-18 25z" horiz-adv-x="1235" />
<glyph glyph-name="klout" unicode="&#xe826;" d="M0-150l0 1000 257 0 0-371 229 0q85 123 257 371l286 0-328-477q0-12 97-143t193-256l96-124-343 0q-47 66-143 200t-143 201l-200 0 0-400-257 0z" horiz-adv-x="1086" />
<glyph glyph-name="linkedin" unicode="&#xe827;" d="M0 730q0 50 35 83t91 33q55 0 89-32 35-33 35-86 0-48-34-80-35-33-92-33l-1 0q-55 0-89 33t-34 83z m13-875l0 668 222 0 0-668-222 0z m345 0l222 0 0 373q0 35 8 54 14 34 43 58t72 24q112 0 112-151l0-357 222 0 0 383q0 148-70 225t-185 77q-129 0-201-111l0-2-1 0 1 2 0 95-222 0q2-32 2-199t-2-469z" horiz-adv-x="1036" />
<glyph glyph-name="meetup" unicode="&#xe828;" d="M0 390q0 35 2 105 24 8 48 8l18 0q17-23 40-70t31-61q2 7 8 37t10 43 11 37 16 41 20 31q28-5 46-5 6 0 11 1 24-54 46-163t39-155q-1 0-4 1l-3 1q-9 0-26-6t-22-7q-40 101-62 203-15-26-15-89t-11-88l-5 2q-8 0-22-2t-21-2l-18 0q-27 48-57 89-3-6-3-15t3-26 3-25l-1-12q-30-15-52-15-7 0-10 1-17 56-17 142z m355-76q0 27 8 58t28 57 47 27q10 0 28-5t23-6q9-40 9-81 0-28-6-55-12 4-38 5t-37 4q-5-20-5-37 0-21 10-37t30-16q9 0 26 5t26 5q17 0 23-14-42-16-82-16-46 0-68 30t-22 78z m58 28l8 1q3 0 8-2t7-2l7 3q2 14 2 22 0 18-5 40-22-25-27-62z m110-54q0 123 78 182 32-3 60-23-1-17-8-67-5-39-5-65l0-14q-20-2-29-2-8 0-43 5-5-12-5-23 0-22 17-38t39-16q26 0 41 23 18-6 21-17-22-21-63-21-37 0-70 20t-33 55z m56 43q4-6 14-6l9 0q9 19 9 49 0 13-6 39-3-8-10-25t-12-31-5-27z m99 19q-2 26 23 26 6 0 18-1t17-1q3 15 3 31 0 29-8 87t-8 87q0 43 10 72 5-3 27-6t41-25q-6-26-6-67 0-20 4-81 2-35 2-61 0-20-1-34l6 0q7 0 9 6t2 13 4 7q8 0 19-9t23-22 15-16q-9-7-41-9t-39-4q-1-12-1-36 0-16 1-33t2-38 1-33q-8-1-23-2t-22-2l0 20q0 21-3 57-4 44-4 61-6 2-32 4t-38 10z m215 8q0 20 2 58 11-1 20-5t21-11 18-10l-1-27q0-59 9-116 19 7 31 23t17 42 6 42 2 45l0 11q3-1 9-1 20-2 49-25 0-3 1-10t1-10q0-15-4-30t-8-22-15-25-14-23q-15-12-34-42-21-7-38-7-71 0-71 142z m200-108q7 6 24 10 0 3 1 9 4 35 7 57t13 59 22 60 36 40 53 18q34 0 76-24 17-37 17-75 0-66-47-119t-113-68q-2-32-2-48 0-73 18-117-8 2-37 2-15 0-22 2-9 21-17 96t-30 100z m90 25q39 10 66 48t27 79q0 30-15 56-23-21-40-56t-23-60-15-68z" horiz-adv-x="1341" />
<glyph glyph-name="vk" unicode="&#xe829;" d="M0 654q10 8 25 12 14 4 25 4l9 0q10 0 24-1 22-1 32-1 6 0 38 2 16 1 29 1t23-1q20-2 32-8 6-3 13-13t12-19 12-26 10-22q38-82 94-163 2-3 7-11t9-13 9-12 11-11 11-9 12-6 12 0q28 5 31 117 1 19 1 35 0 74-15 102-6 11-16 18t-25 12-23 11q14 28 50 37t97 9l53 0t26-1 27-3l22-6t20-9 13-14q9-18 11-42 0-7 1-14 0-20-3-52-4-42-4-52-3-23-3-46 0-18 2-38 4-44 30-61 9 1 17 4t16 11 11 12 13 17 11 14q47 62 94 163l9 23t12 27 12 20 16 14q16 7 38 7l9 0q20 0 46-2 32-2 47-2 9 0 28 1t33 2 30-1 26-6 14-13q3-6 3-13 0-29-35-87-17-29-35-53t-46-58-37-47q-2-2-14-18t-18-24-12-23-5-27q0-8 3-15t10-15 10-12 14-13 12-11q71-65 112-117 40-52 40-75 0-33-51-41-26-4-53-4-21 0-43 3-20 2-37 2-26 0-45-5l-6 0q-66 11-139 94-4 4-17 21t-22 26-23 17-27 6q-23-4-31-29t-9-60-10-49q-13-24-79-24-28 0-66 4-78 8-142 40t-101 68-81 93q-104 133-197 322-3 6-11 23t-12 26-10 24-8 28-3 27z" horiz-adv-x="1220" />
<glyph glyph-name="plancast" unicode="&#xe82a;" d="M0 237q10 139 168 173 12 89 43 192t72 146q48 49 120 76t146 27q86 0 164-39t117-110q19-36 42-131t31-155q15-6 34-6 30 0 30 29 0 11-6 34t-5 36l0 4 1 0q27 0 61-51 34-52 34-81 0-20-10-36t-19-25-33-18-33-11l-36-8q-5-1-8-2l0-26q0-173-77-253l25-25q4-2 25-12t36-19 19-18q-65-51-132-51-34 0-75 17-88-37-180-37-118 0-234 61-36-8-55-19-7-4-27-18t-37-24-28-10q-3 18-3 37 0 79 53 126-60 99-62 257l-7 1-3 0q-30 1-76-17-48-18-64-19-4 0-10 2z m232-93q0-13 7-27 27-96 89-138 43-29 106-47t117-18q66 0 146 28t120 72q68 73 68 257 0 226-92 379-12 20-18 28t-19 16-33 8q-50 0-107-61-76 47-140 47-59 0-105-43t-71-105-42-141-22-141-5-115z m181 407q0 22 16 38t37 16q22 0 38-16t16-38-16-37-38-15q-21 0-37 15t-16 37z m56 18q0-12 12-12 5 0 9 4t4 9-4 9-9 4q-12 0-12-13z m94-60l2 2-1-3z m5 5l52 52 51-52q-22-7-50-7-29 0-53 7z m2-22q27-5 50-5 22 0 49 5l-49-49z m105 16l0 3 1-2z m27 43q0 22 16 38t38 16 38-16 16-38-16-37-38-15-38 15-16 37z m56 18q0-5 4-9t8-4q5 0 9 4t4 9q0 13-13 13-5 0-9-4t-4-9z" horiz-adv-x="1050" />
<glyph glyph-name="disqus" unicode="&#xe82b;" d="M0-132l0 957q121 21 297 21 140 0 236-24t166-77q165-125 165-370 0-260-161-395-148-126-451-126-143 0-251 14z m220 162q19-4 77-4l4 0q153 0 240 85 89 86 89 256 0 154-82 232t-229 78q-66 0-100-9l0-638z" horiz-adv-x="863" />
<glyph glyph-name="rss" unicode="&#xe82c;" d="M0-16q0 55 39 94t94 39 94-39 39-94q0-56-39-95t-94-39-94 39-39 94z m0 335l0 191q179 0 331-89t241-241 89-331l-192 0q0 194-137 331-138 138-331 138z m0 339l0 192q203 0 388-80t319-214 214-319 80-388l-192 0q0 164-64 314t-173 258-258 172-314 64z" horiz-adv-x="1000" />
<glyph glyph-name="skype" unicode="&#xe82d;" d="M0 577q0 113 80 193t193 80q78 0 145-42 36 7 80 7 195 0 333-138t138-332q0-49-11-101 28-59 28-121 0-113-80-193t-193-80q-68 0-129 32-45-8-86-8-194 0-332 138t-138 333q0 47 9 94-37 65-37 138z m221-366q0-41 30-85 71-104 246-104 50 0 97 11t88 34 66 64 25 95q0 58-30 98t-74 58-96 33-96 23-74 26-30 45q0 33 37 49t75 16q40 0 66-13t38-30 21-35 25-30 40-13q27 0 48 19t21 46-15 54q-30 55-95 80t-138 25q-46 0-89-9t-83-29-65-57-25-87q0-66 40-107t97-57 115-29 98-34 40-59q0-29-23-49t-51-27-57-7q-38 0-65 11t-39 27-23 35-18 35-23 27-37 11q-28 0-49-17t-21-45z" horiz-adv-x="986" />
<glyph glyph-name="twitter" unicode="&#xe82e;" d="M0-37q30-3 60-3 176 0 314 108-82 1-147 50t-89 125q20-4 47-4 35 0 67 9-88 17-146 87t-58 161l0 3q53-30 115-31-52 34-83 90t-31 121q0 68 35 127 94-117 230-187t291-78q-7 33-7 58 0 104 74 178t179 74q109 0 184-80 87 18 160 62-28-91-110-140 73 9 144 40-48-75-125-131l0-33q0-101-30-203t-90-194-145-165-202-115-253-43q-209 0-387 113z" horiz-adv-x="1230" />
<glyph glyph-name="youtube" unicode="&#xe82f;" d="M0 123q0 54 6 162 4 53 38 87t87 37q100 5 301 5t301-5q53-3 87-37t38-87q5-90 5-162t-5-162q-4-53-38-87t-87-37q-100-5-301-5t-301 5q-53 3-87 37t-38 87q-6 108-6 162z m67 141l61 0 0-326 59 0 0 326 61 0 0 55-181 0 0-55z m65 603l60 0 38-152 4 0 36 152 60 0-46-148q-23-73-23-75l0-158-59 0 0 151q-2 14-6 26t-9 27-9 25z m116-885q0-48 36-48 32 0 61 35l0-31 52 0 0 281-52 0 0-214q-21-21-31-21-14 0-14 19l0 216-52 0 0-237z m79 575l0 146q0 34 22 53t56 19q33 0 54-20t21-53l0-145q0-36-20-57t-56-21q-35 0-56 22t-21 57z m54-7q0-23 22-23 23 0 23 25l0 153q0 9-7 15t-16 6-16-6-7-15l0-156z m67-612l53 0 0 21q20-25 50-25 47 0 47 62l0 156q0 71-51 71-25 0-46-27l0 123-53 0 0-381z m53 53l0 176q11 11 22 11 22 0 22-28l0-148q0-24-19-24-14 0-25 13z m23 539l0 237 52 0 0-215q0-19 14-19 13 0 31 21l0 213 52 0 0-281-52 0 0 31q-29-35-61-35-36 0-36 48z m114-513q0-38 19-63t57-25q78 0 78 87l0 21-54 0q0-2 1-14t-1-17-3-14-7-12-14-4q-23 0-23 40l0 53 100 0 0 72q0 38-19 60t-57 22q-36 0-58-23t-22-59l0-127z m54 99l0 30q0 31 23 31t23-31l0-30-46 0z" horiz-adv-x="863" />
<glyph glyph-name="vimeo" unicode="&#xe830;" d="M0 578q55 65 110 116t96 78 73 43 48 22l17 4q12 2 24 2 19 0 35-6 26-10 43-35t29-55 22-72 15-78 14-80 15-71q32-125 52-178t42-53q24 0 67 56t94 152q26 48 26 91 0 13-2 23-9 52-51 65-11 4-24 4-35 0-83-26 22 130 134 209 85 60 174 60 12 0 24-1 102-8 139-90 18-38 18-88 0-29-6-61-18-102-70-208t-113-188-133-155-124-117-91-69q-42-24-79-24t-70 21-56 48-38 57q-18 38-98 299t-97 281q-1 2-4 4t-14 5-24 0-37-14-50-33z" horiz-adv-x="1146" />
<glyph glyph-name="windows" unicode="&#xe831;" d="M0-43l105 371q35 20 86 31t84 13l34 1q50 0 104-10 101-20 144-61l-104-370q-36 28-80 46t-69 21l-26 4q-34 3-65 3-16 0-43-2t-84-14-87-33z m126 477l105 371q35 20 86 32t84 13l33 1q51 0 104-10 101-20 144-61l-104-371q-36 28-80 46t-69 21l-26 4q-35 3-64 3-16 0-43-2t-84-13-88-33z m431-513l104 371q37-28 81-46t69-21l25-4q34-3 65-3 16 0 43 2t84 13 87 33l-104-371q-35-20-86-31t-84-12l-33-2q-51 0-104 10-101 20-145 61z m120 475l104 370q37-28 81-46t69-21l25-4q34-3 65-3 16 0 43 2t84 13 87 33l-104-370q-35-20-86-32t-85-13l-33-2q-52 0-103 11-101 19-145 61z" horiz-adv-x="1233" />
<glyph glyph-name="xing" unicode="&#xe832;" d="M0 152l219 0 173 286-130 229-219 0 130-229z m362 90l346 608 232 0-345-608 222-392-232 0z" horiz-adv-x="940" />
<glyph glyph-name="yahoo" unicode="&#xe833;" d="M0 641l6-19q4-6 8-10t6-5l2-2 19-10 111 0 287-344q11-12 11-25l0-192q0-8-3-12t-6-5l-3 0q-112 0-142-3-10 0-10-9l0-55 516 0 0 57q0 3-3 5t-5 2l-146 0q-9 0-9 15l0 202q-1 3 2 7t6 7l3 3q11 11 264 249l133 0q9 0 18 7l17 19q6 7 6 18l0 14q-1 3-3 5t-3 2l-438 0-7-6q-1-6 2-13t6-10l2-4 23-23 18-7 115 0-207-195-228 291 41 0q13-1 22 4l68 21q1 0 3 1t5 5 3 9l0 14q0 3-2 5t-4 2l-492 0q-8-1-10-7l0-8z m1190 109l185-7-83-567-61 3z m13-763l4 110 110-4-4-110z" horiz-adv-x="1375" />
<glyph glyph-name="chrome" unicode="&#xe834;" d="M0 327q0 75 23 156t62 145q62 104 183 164t249 60q130 0 250-82t183-202q50-86 50-214 0-150-71-266t-192-177-270-60q20 36 61 110t74 131 65 108l1 2q3 5 12 19t13 20 10 17 10 21 6 21q6 24 6 48 0 80-48 142l275 81q-285 0-428-1-7 1-22 1-99 0-166-74t-56-173q-2 9-2 28 0 44 15 77l-204 201 198-341q19-72 80-118t135-46q17 0 33 3l-66-276q-115 0-223 71t-175 176q-66 102-66 230z m312 19q0-77 55-132t131-55 131 55 55 132q0 76-54 131t-131 55-131-55-54-131z" horiz-adv-x="998" />
<glyph glyph-name="email" unicode="&#xe835;" d="M0 62l0 576q0 1 3 19l339-290-338-325q-4 14-4 20z m45 635q7 3 17 3l913 0q9 0 18-3l-340-291-45-36-89-73-89 73-45 36z m1-694l341 327 132-107 132 107 341-327q-8-3-17-3l-913 0q-8 0-16 3z m650 364l338 290q3-9 3-19l0-576q0-9-3-20z" horiz-adv-x="1037" />
<glyph glyph-name="macstore" unicode="&#xe836;" d="M0 237l0 151q0 10 7 18t18 8l265 0-115-201-150 0q-11 0-18 7t-7 18z m122-244l66-38z m10 44q-3 11 2 20l304 528q5 9 15 12t19-3l65-37q10-5 13-16t-3-20l-303-528q-5-9-16-12t-20 3l-65 38q-9 4-12 15z m308 176l115 201 67 0 94-201-276 0z m78 625q1 9 6 12 10 5 36-31t72-116 62-105q28-44 76-131t91-169 44-84q11-19-2-36t-31-24q-18-8-24-9t-30 7q-30 15-190 393-5 11-14 31t-17 38-19 42-19 44-17 42-14 39-8 33-2 24z m328-424l235 0q10 0 18-8t8-18l0-151q0-10-8-18t-18-8l-133 0q-4 16-8 23l-24 46q-64 121-70 132z m13-317q3 11 13 16l37 19q10 5 21 2t16-14l31-60q12-24-10-39l-27-16q-10-5-21-3t-17 13l-40 62q-6 10-3 21z m77-145q1 16 4 21t13 14l24 9q61 12 72-70 3-32-1-76-4 12-44 30t-55 39q-13 18-13 34z" horiz-adv-x="1106" />
<glyph glyph-name="myspace" unicode="&#xe837;" d="M0 175l0 350 140 0 0-207 805 0 0 207 141 0 0-350-1086 0z" horiz-adv-x="1086" />
<glyph glyph-name="podcast" unicode="&#xe838;" d="M0 331q0 141 67 261t182 189 251 70 251-70 182-189 67-261q0-4-1-10t-1-10q-8 208-153 353t-347 145-347-145-153-353q0 4-1 10t-1 10z m183 1q0 136 93 233t224 97 224-97 93-233q0-3-1-10t-1-10q-8 129-99 219t-217 90-217-90-99-219q0 3-1 10t-1 10z m166-195q0 33 5 59t11 43 19 29 23 18 29 10 31 4 35 1 35-1 31-4 29-10 23-18 19-29 11-43 5-59q0-118-45-203t-107-85-107 85-45 203z m47 280q0 44 31 76t74 32 74-32 31-76-31-76-74-32-74 32-31 76z" horiz-adv-x="1000" />
<glyph glyph-name="amazon" unicode="&#xe839;" d="M2 74q5 8 16 1 250-145 544-145 196 0 387 73 5 2 15 6t14 6q15 6 24-6t-6-22q-18-13-46-30-86-51-192-79t-207-28q-156 0-295 55t-249 154q-6 5-6 10 0 3 2 6z m301 285q0 69 34 118t93 74q54 23 133 33 27 3 88 8l0 17q0 64-14 86-21 30-66 30l-8 0q-33-3-57-21t-31-50q-4-20-20-23l-115 14q-17 4-17 18 0 3 1 7 17 89 84 132t156 48l25 0q114 0 178-59 10-10 19-22t14-21 9-26 6-24 3-28 1-26l0-242q0-26 8-48t15-31 23-31q6-9 6-16 0-8-8-14-83-72-90-78-12-9-29-2-14 12-25 23t-15 16-15 20-14 20q-56-61-110-76-34-10-84-10-77 0-127 48t-50 135z m172 20q0-39 20-63t53-24q3 0 9 1t8 1q42 11 65 54 11 19 17 42t6 37 1 46l0 25q-58 0-88-8-88-25-88-111z m420-322q2 4 6 8 25 17 48 23 38 10 74 11 10 1 19-1 45-4 54-15 4-6 4-18l0-7q0-35-19-83t-53-77q-5-4-9-4-2 0-4 1-6 3-3 11 37 87 37 121 0 11-4 16-10 12-56 12-17 0-40-2-25-3-46-6-6 0-8 2t-1 4q0 1 1 3z" horiz-adv-x="1100" />
<glyph glyph-name="steam" unicode="&#xe83a;" d="M0 470q0 55 39 94t94 39q47 0 84-30t47-75l502-202q32 19 68 19 2 0 7-1t8-1l110 159q1 73 53 125t125 52q74 0 126-52t52-126-52-126-126-52l-170-124q-5-51-43-86t-89-35q-48 0-84 30t-46 75l-502 201q-32-19-68-19-55 0-94 39t-39 94z m35 0q0-40 29-69t69-29q9 0 21 2l-41 16 0 1q-28 13-40 42-6 14-6 28 0 15 6 30 12 30 40 42 15 7 31 6 13 0 27-5l0 1 49-20q-29 52-87 52-40 0-69-29t-29-70z m710-333q29-52 87-52 40 0 69 29t29 70q0 40-29 69t-70 29q-14 0-21-2l40-16q30-12 43-42 7-15 7-30 0-14-6-29-12-31-42-43-15-6-30-6-14 0-29 6-8 3-25 10t-25 10z m270 335q0-49 35-84t84-35q50 0 85 35t35 84-35 84-85 35q-49 0-84-35t-35-84z m25 1q0-40 28-68t68-28q39 0 67 28t28 68q0 39-28 67t-67 28q-40 0-68-28t-28-67z" horiz-adv-x="1312" />
<glyph glyph-name="cloudapp" unicode="&#xe83b;" d="M0 202q0 104 74 178t177 74l1-1q0 3-1 7t-1 6q0 118 83 201t200 83q103 0 181-66t96-166l17 0q117 0 200-83t83-201-83-201-200-83q-8 0-12 1l0-1-578 0 0 1q-99 5-168 78t-69 173z" horiz-adv-x="1108" />
<glyph glyph-name="dropbox" unicode="&#xe83c;" d="M0 311l214 163-214 162 311 203 203-174 208 174 302-193-198-165 198-170-307-185-203 156-203-156z m213-251l0 57 94-55 203 155 1-1 0-355z m5 416l294-185 296 196-294 169z m293-615l1 355 2 1 202-155 100 60 0-63z" horiz-adv-x="1024" />
<glyph glyph-name="ebay" unicode="&#xe83d;" d="M0 285q0 31 5 54t22 47 47 39 84 24 129 10q88 0 148-13 39-8 58-18l0-161-293 0q0-21 2-34t9-31 27-27 50-9q85 0 85 61l121 0 0-89q-27-13-56-19-68-15-150-15-92 0-151 13t-87 39-38 56-10 75z m198 34l178 0q0 18-2 27t-9 24-28 22-54 7q-31 0-51-8t-27-23-9-24-2-25z m293-182l0 89 78 0q-1-51-74-87-2-2-4-2z m0 0q2 0 4 2 73 36 74 87l-78 0 0 39 81 0q1 12 1 23 0 45-13 76-16 39-69 62l0 183 107 0 0-203 2 0q31 44 88 44 43 0 69-26-40-29-40-102 0-104 76-122-1-31-6-54t-16-47-33-37-54-13q-64 0-91 50l-1 0 0-42-103 0 0 79z m0 128l0 161q53-23 69-62 13-31 13-76 0-11-1-23l-81 0z m107-11q0-77 9-108t36-31q28 0 37 31t9 108l0 5q0 35-1 52t-5 37-14 29-27 8q-16 0-26-9t-13-30-5-38-1-54z m119 68q0 73 40 102 17-18 26-53t10-56 0-64l0-52q-76 18-76 122z m8 159q0 69 40 94 34 26 101 26 4 0 49-3l107-218 0-102q0-14 2-39t2-34l-100 0-5 52-2 0q-33-58-100-58-18 0-26 1l0 52q0 43-1 64t-10 56-26 53q38 29 135 29l24 0 0 31q0 29-9 43t-36 14q-26 0-33-16t-7-45l-107 0z m97-154q0-62 41-62 13 0 23 5t16 14 10 18 5 24 2 24 0 24-1 20q-4 0-17-1t-17-1l-14-2t-14-3-11-5-10-8-7-11-5-16-1-20z m67 323l154 0 100-232 109 232 143 0-189-359 0-190-141 0 0 190-43 89 0 91q0 55-22 87t-86 41z m26-52q64-9 86-41t22-87l0-91z" horiz-adv-x="1395" />
<glyph glyph-name="facebook" unicode="&#xe83e;" d="M0 313l0 191 154 0 0 96q0 104 68 177t164 73l153 0 0-191-153 0q-15 0-27-17t-12-41l0-98 192 0 0-191-192 0 0-463-192 0 0 463-154 0z" horiz-adv-x="538" />
<glyph glyph-name="github" unicode="&#xe83f;" d="M0 3q0-63 62-108t150-45 151 45 63 108q0 64-63 109t-151 45q-1 0-3-1t-3-1q-24 22-24 48t24 54q71 4 120 55t49 121q0 28-7 50 28 5 44 14l0 115q-48-32-109-32l-7 0q-46 31-101 31-75 0-128-52t-53-126q0-47 24-87t64-64q-28-36-28-74 0-36 26-75-46-21-73-55t-27-75z m121 432q0 33 22 57t51 24q30 0 51-24t21-57-21-57-51-24q-29 0-51 24t-22 57z m3-432q0 27 26 46t63 19 63-19 26-46q0-26-26-45t-63-19-63 19-26 45z m331 766q0 34 24 58t58 24 58-24 24-58-24-58-58-24-58 24-24 58z m19-647l0 479 134 0 0-479-134 0z m181 377l55 0 0-285q4-30 20-52t35-32 38-16 31-7l20 0q27 0 48 8 23 8 30 16l7 9 2 99q-42-13-65-13-5 0-9 1-23 3-27 16l-4 13q0 3-1 4l0 238 91 0 0 102-91 0 0 93-123 0 0-93-55 0 0-102z" horiz-adv-x="939" />
<glyph glyph-name="googleplay" unicode="&#xe841;" d="M0-146l0 992 501-496z m0 0l501 496 134-133-202-117-433-250 0 4z m0 992l0 4 433-250 202-117-134-133z m501-496l134 133 231-133-231-133z" horiz-adv-x="866" />
<glyph glyph-name="itunes" unicode="&#xe842;" d="M0 350q0 136 67 251t182 182 251 67 251-67 182-182 67-251-67-251-182-182-251-67-251 67-182 182-67 251z m100 0q0-166 117-283t283-117 283 117 117 283-117 283-283 117-283-117-117-283z m183-176q0-31 22-53t53-22q33 0 57 24t24 57l0 269 200 37 0-208q-15 5-28 5-33 0-57-24t-24-57q0-31 21-53t52-22 56 23 26 54l0 394-290-50 0-300q-15 5-28 5-34 0-58-24t-24-57z" horiz-adv-x="1000" />
<glyph glyph-name="plurk" unicode="&#xe843;" d="M0-150l0 1000 764 0 0-817-571 3 0-186-193 0z m191 359l399 0 0 450-399 0 0-450z" horiz-adv-x="764" />
<glyph glyph-name="songkick" unicode="&#xe844;" d="M0 283l0 134t3 59 7 62 14 53 24 56 36 47 51 48q146 110 356 110l16 0 0-777 124 0 0 208q7-11 39-64t51-80q29-40 64-53t92-13l36 0 0 118q-45 0-63 7t-42 41q-14 18-37 57t-26 44l171 238-148 0-136-189 0 453q135-22 238-100 29-22 51-48t36-47 24-56 14-53 7-62 3-59l0-134t-3-59-7-62-14-53-24-56-36-47-51-48q-146-110-367-110t-367 110q-29 22-51 48t-36 47-24 56-14 53-7 62-3 59z m81-149q66-67 192-67 80 0 138 41t58 118q0 51-18 85t-45 46-59 20-59 9-45 12-18 30q0 47 70 46 57 0 87-29l78 78q-60 60-170 60-78 0-132-42t-54-118q0-51 21-84t52-45 63-17 60-9 37-14q10-11 10-30 0-46-72-46-77 0-113 36z" horiz-adv-x="1000" />
<glyph glyph-name="lastfm" unicode="&#xe845;" d="M0 350q0 164 116 280t280 116q124 0 220-64t147-181q15-36 129-300 21-48 38-74t49-45 80-22l7 0q67 0 111 36 46 38 47 96 0 27-8 45t-30 32-41 22-59 21q-125 41-180 90t-55 136q0 91 58 146t157 55q127 0 191-115l-84-43q-45 62-112 62-46 0-77-29t-31-73q0-13 2-25t9-21 12-16 18-15 20-12 25-11 27-10 32-10 33-10q108-36 155-84t47-140q0-100-76-166-75-65-186-65l-3 0q-100 0-161 47t-103 141l-14 33-127 288q-33 77-105 124t-159 47q-119 0-204-85t-85-204 85-204 204-85q82 0 150 43t105 113l51-118q-55-68-135-107t-171-39q-164 0-280 116t-116 280z" horiz-adv-x="1329" />
<glyph glyph-name="gmail" unicode="&#xe846;" d="M0-97l0 897 185 0 9-8 825 0 9 8 174 0 0-900-171 0 0 7-855 0 0-4-176 0z m176 132l0-80 855 0 0 74-345 259-79-65-86 70z m0 60l307 229-307 252 0-481z m83 641l348-298 347 298-695 0z m465-417l307-230 0 484z" horiz-adv-x="1202" />
<glyph glyph-name="pinboard" unicode="&#xe847;" d="M0 527l316 323 0-123 301-277 187 46-195-208 391-438-444 392-188-192 30 169-255 316z" horiz-adv-x="1000" />
<glyph glyph-name="openid" unicode="&#xe848;" d="M0 203q-1 63 25 117t67 89 92 63 101 43 93 26 68 13l26 3 0-123q-57-4-105-20t-78-37-53-46-35-48-19-43-8-31l-2-12q-3-15-3-30 0-22 7-42 12-34 38-58t59-45 68-33 64-22 47-13l19-3 0-103q-97 10-176 35t-127 57-83 68-51 71-25 62-10 45z m510-353l0 902 142 98 0-922z m176 591l5 0q38-1 77-15 42-16 64-31l21-16-83-34 313-78 0 245-107-61q-40 43-113 69t-126 31l-52 5 0-115z" horiz-adv-x="1083" />
<glyph glyph-name="quora" unicode="&#xe849;" d="M0 399q0 122 60 226t162 165 223 61q184 0 315-132t131-319q0-119-57-221t-154-163q1-2 4-7t12-16 21-22 33-22 45-17l0-76q-36-7-67-7-50 0-85 18-56 29-91 94-48-13-105-13-120 0-223 61t-162 164-60 226z m221-59q0-116 67-199t161-83q26 0 52 8-2 3-6 9t-15 19-24 24-31 20-37 10l0 88q10 1 20 1 119 0 203-90 63 81 63 194l0 116q0 116-67 199t-161 83-161-83-67-199l0-116z" horiz-adv-x="889" />
<glyph glyph-name="soundcloud" unicode="&#xe84a;" d="M0 221q0 16 4 44t10 31q6-3 11-33t5-43q0-14-5-43t-11-32q-13 7-13 74z m64 0q0 25 5 74t6 61q0 6 6 6 4 0 6-6 12-129 12-135 0-24-6-71t-7-59q-2-7-6-7-6 0-6 7-1 11-6 59t-5 72z m81 0q0 24 5 74t5 55q0 9 7 9 8 0 8-9 11-113 11-128t-11-136q0-8-8-8-7 0-7 8 0 7-5 59t-5 78z m92 0q0 38 2 81t4 95 4 82q0 10 9 10 10 0 10-10 1-16 6-112t5-146q0-26-5-77t-5-58q0-10-10-10-9 0-9 10-9 132-9 135z m94 0q0 55 3 160t4 129q2 12 12 12t12-12q1-32 5-133t4-155q0-25-4-72t-5-61q-2-12-12-12t-12 12q0 11-4 59t-4 74z m95 0q0 40 1 85t3 100 3 85q2 15 14 15t14-15q1-30 3-85t3-100 1-85q0-2-6-131l0 1q-2-15-14-15t-14 14q-6 129-6 131z m95-1q0 3 6 351 2 18 16 18t16-18q6-348 6-351 0-1-6-127-2-17-16-17t-16 17q-6 126-6 127z m80 213q0 83 1 156-1 10 13 18t33 12 35 6 25 2q97 0 169-73t80-179q28 13 55 13 58 0 100-46t42-111-42-111-100-46l-393 0q-6 0-11 6t-5 13q0 55-1 156t-1 183z" horiz-adv-x="1152" />
<glyph glyph-name="tumblr" unicode="&#xe84b;" d="M0 440l0 142q60 20 101 55 41 33 67 86 26 51 35 127l143 0 0-253 237 0 0-157-237 0 0-256q0-86 9-112 9-24 34-39 34-20 76-20 77 0 151 49l0-157q-63-31-116-43-52-12-112-12-68 0-122 17-55 19-89 50-36 31-52 68-14 34-14 105l0 350-111 0z" horiz-adv-x="616" />
<glyph glyph-name="eventasaurus" unicode="&#xe84c;" d="M0 9l0 678q0 66 43 115t108 49l697 0q70 0 117-38t47-107l0-59q-74 14-111 20-53 7-54 7-10 3-30 10t-34 11-33 4q-62 0-132-47-34-3-96-7t-112-9-96-14l-2 0-1-1-4 0-1-1-1 0q-72-14-87-26-18-15-20-71l0-165-3-18 526-13 80 27q-44-79-70-132l-106-47-406-7q-3-3-10-4t-11-5q4-26 7-39 12-52 112-59 206-13 335-13 38 0 120 20t127 20q65 0 111-29l0-54q0-155-154-155l-723 0q-61 0-98 48t-37 111z m690 546q0 14 10 25t24 11 25-11 11-25-11-24-25-10-24 10-10 24z" horiz-adv-x="1011" />
<glyph glyph-name="wordpress" unicode="&#xe84d;" d="M0 350q0 136 67 251t182 182 251 67 251-67 182-182 67-251-67-251-182-182-251-67-251 67-182 182-67 251z m39 0q0-135 72-247t189-168l-220 603q-40-89-40-188z m75 253l30 0q48 0 123 6 12 1 18-8t2-19-16-11l-53-5 168-499 101 302-72 197q-24 3-48 5-12 1-16 11t2 19 18 8l121-6q49 0 123 6 12 1 18-8t2-19-16-11l-52-5 166-496 46 154q36 117 36 149 0 64-39 128-2 3-13 21t-14 24-9 19-8 24-2 21q0 33 23 58t56 25q1 0 3-1t3-1q-131 121-312 121-119 0-221-56t-165-152z m256-696q62-18 130-18 80 0 153 26l-3 6-142 389z m362 44q105 61 167 168t62 232q0 120-56 221 3-21 3-47 0-63-35-165z" horiz-adv-x="1000" />
<glyph glyph-name="yelp" unicode="&#xe84e;" d="M0 262l0-13q0-43 6-69 5-18 19-26t29-3l204 63q22 7 31 26 5 10 5 20t-5 19q-9 19-32 26l-204 82q-14 3-28-8t-17-31q-8-36-9-88z m87 477q-5 8-5 16 0 9 6 18 12 17 38 27 81 31 171 46l5 0q45 0 49-38 25-313 25-393 0-33-27-40-6-2-12-2-21 0-37 25-148 232-213 341z m69-765l139 166q19 21 38 21 8 0 16-3 25-11 25-45 0-5-1-10l0-221q-2-14-17-22-9-5-18-5-8 0-16 3-36 6-85 26t-73 38q-18 14-18 30 0 11 10 23z m294 337q-6 12-6 23 0 17 15 33l130 179q7 8 20 8 3 0 7-1 17-2 29-18 25-26 53-71t37-74q3-8 3-15 0-9-4-16-8-13-23-16l-209-53q-8-2-16-2-23 0-36 22z m12-125q-9-12-9-24 0-16 13-32l114-190q7-9 24-9l3 0q19 1 33 15 27 24 56 63t42 70q4 11 4 21 0 7-3 13-5 14-19 19l-205 70q-10 4-19 4-21 0-33-19z" horiz-adv-x="741" />
<glyph glyph-name="intensedebate" unicode="&#xe84f;" d="M0 509q174 33 208 71 27 30 45 91 18-23 23-49t1-40l-5-13q-6-13-11-21t-8-14-10-11-10-9-16-11-21-14q-35-27-34-63t31-55q26-16 51 6t53 78q12 25 19 66t20 73 47 59q20 16 46 19t50 1 52 0 60 24 67 65q5 6 14 16t38 29 59 28 74-1 86-45q-48 21-90 21t-68-15-44-33-26-33l-7-15q-15-37-29-62t-24-39-25-23-24-12-32-9-38-10q-43-13-50-54-6-36 22-53 32-18 82 14 37 24 60 50t31 44 28 40 52 37q43 21 82 29t83 8 67 4q197 32 246 114 48 79 49 130 17-58 12-104t-27-81-44-57-41-34l-18-11q-77-40-129-56t-84-21-62-22q-103-55-52-155 21-41 62-45t78 30q6 5 14 14t23 39 16 61q20-56 16-97t-21-64l-15-22q-36-38-61-54t-63-19-90 15q-86 21-120 21t-62-18q-28-16-43-43t-2-49q14-25 34-28t64 22q39 23 66 30t68 9q87 2 139-38 37-24 74-57-40 24-79 31t-66-1-49-18-32-22l-10-10q-45-51-76-72t-53-21-59 15q-10 4-40 17t-42 16l0 110q0 121-92 186-59 40-134 40-76 0-134-39-20 29-51 33l0 75q0 31-22 53t-53 22l-18 0z m127-564l0 162q0 65 19 99 40 71 134 71 69 0 111-44t42-110l0-135-202 0 0-67q0-48 50-48 45 0 50 49l102 0q0-62-41-105-43-43-111-43-94 0-134 71-19 34-19 99z m103 121l100 0 0 56q0 56-50 56t-50-56l0-56z m262-199q11 36 11 71 0 11-3 20 24-4 34-5 62-6 85-46 2-3 5-9t7-23-1-31q-31 24-66 30t-54-1z" horiz-adv-x="1286" />
<glyph glyph-name="eventbrite" unicode="&#xe850;" d="M1-27q3 31 12 66 11 45 72 351t71 350q12 52 24 73t39 30 87 9l241 0q59 0 135-1t116-1q41 0 50-45 10-48-23-92-30-40-81-40l-401 0-50-233 352-3q44 0 54-45t-21-84q-27-33-70-33l-360 0-48-248 432 0q64 0 77-44t-17-88-68-44l-553 0q-30 0-48 17t-22 46-1 60z" horiz-adv-x="851" />
<glyph glyph-name="scribd" unicode="&#xe851;" d="M0 138q0 44 32 76t77 32q44 0 76-32t32-76q0-46-34-78 65-74 163-74 69 0 116 41 47 42 47 106 0 39-25 77-23 38-60 64-34 23-115 57-75 30-122 59-42 27-73 64-30 36-46 74-14 39-14 79 0 101 81 172 82 71 197 71 77 0 155-33 66-28 113-80 37-32 37-80 0-45-32-77t-76-32q-45 0-77 32t-32 77q0 21 10 44-32 16-88 16-69 0-112-31t-43-80q0-43 38-76 40-33 128-71 92-40 141-73 51-34 82-74 33-41 48-85 0-1 1-3t1-3q-75-62-75-158 0-53 28-104-11-13-24-27-87-82-206-82t-208 64-139 194l3 1q-5 15-5 29z m613-75q0-52 36-89t88-37 88 37 36 89q0 51-36 88t-88 37-88-37-36-88z" horiz-adv-x="861" />
<glyph glyph-name="posterous" unicode="&#xe852;" d="M0 835l100 0 8-121 10 0 5 3q79 133 246 133 130 0 213-99t83-254q0-93-27-167t-73-118-101-67-117-23q-69 0-126 29t-87 80l-2 3-11 0-3-7 0-378-113 0 0 761q0 88-6 224z m119-413q0-31 6-55 19-70 74-113t126-43q101 0 162 77t61 205q0 119-61 194t-157 75q-72 0-128-46t-74-118q-9-33-9-53l0-123z" horiz-adv-x="664" />
<glyph glyph-name="stripe" unicode="&#xe853;" d="M1 512q-11 151 126 252 63 47 145 70 78 23 175 11t181-59q-2-40 0-76 6-119-10-153-9 1-52 14-36 11-66 16-31 6-61 8-70 6-99-38 8-44 38-66 30-21 82-37 49-14 69-26 113-70 139-219l0-85q0-81-45-143t-119-93q-105-44-245-39t-240 60q3 41 0 79-3 42-2 81 2 43 12 69 18-3 48-11 53-15 74-19 165-36 177 40 3 22-11 41t-35 30q-28 14-48 22-29 12-37 17-44 23-59 32-57 34-80 68-54 77-60 154z" horiz-adv-x="668" />
<glyph glyph-name="opentable" unicode="&#xe854;" d="M0 384l0 51q0 38 87 65t211 27 211-27 87-65l0-51q-1-38-88-65t-210-27-210 27-88 65z m287 243l0 27q2 19 64 33t149 14 149-14 64-33l1 0 0-27-1 0q-2-20-64-34t-149-14-149 14-64 34z m211-494l0 64q4 56 117 95t271 39 271-39 117-95l0-64q-3-55-116-94t-271-39-271 39-117 95z m228 341l0 42q2 29 76 49t176 20 176-20 76-49l0-42q0-29-74-50t-178-21-178 21-74 50z" horiz-adv-x="1273" />
<glyph glyph-name="cart" unicode="&#xe855;" d="M0 704q0 20 13 33t33 13l235 0q16 0 29-10t17-26l24-98 674 0 7 21q10 32 43 32 9 0 13-2 15-4 24-16t9-27q0-5-2-13l-118-393q-4-15-16-24t-27-9l-559 0q-16 0-29 10t-17 25l-108 438-199 0q-19 0-33 13t-14 32z m372-178l62-248 489 0 2 9 72 239-625 0z m42-484q0 38 28 65t66 27 65-27 27-65-27-65-65-27-66 27-28 65z m65 406l166 0 0-92-146 0z m245-92l1 92 162 0-24-92-139 0z m37-314q0 38 28 65t66 27 65-27 27-65-27-65-65-27-66 27-28 65z" horiz-adv-x="1120" />
<glyph glyph-name="print" unicode="&#xe856;" d="M0-50l0 333 116 129 85 0 0-64-56 0-80-89 0-245 795 0 0 245-80 89-56 0 0 64 85 0 115-129 0-333-924 0z m201 319l0 330 151 151 372 0 0-481-523 0z m60 61l403 0 0 360-252 0 0-151-151 0 0-209z" horiz-adv-x="924" />
<glyph glyph-name="angellist" unicode="&#xe857;" d="M0 136q0 63 28 98 23 31 74 45-16 40-16 59 0 33 35 70 37 35 69 35 17 0 40-9-48 137-69 208-24 81-24 115 0 48 24 75 25 28 67 28 72 0 173-295l17-49q6 15 12 33 100 292 180 292 40 0 63-27 24-27 24-70 0-28-24-113-21-73-66-200 57-14 82-54 27-43 27-133 0-178-106-291-108-113-274-113-66 0-127 24-59 21-107 66-51 48-76 99-26 54-26 107z m65 5q0-25 14-59 13-32 39-67 41-53 97-81 57-28 129-28 129 0 217 97 87 96 87 243 0 46-6 71-5 22-19 34-27 23-106 40-79 18-168 18-22 0-28-6-7-3-7-20 0-41 46-58 50-21 165-21l28 0q16 0 23-11 8-8 11-31-17-17-55-31-36-13-53-26-40-29-64-69-23-39-23-74 0-21 10-51 11-33 11-43l0-6-4-15q-44 3-64 41-17 32-19 82-3-1-12-1l-11 0q1-5 1-12 0-30-23-51t-54-21q-47 0-95 45-48 46-48 90 0 8 3 16 1 7 16 22 25-31 34-43 42-59 76-59 9 0 17 6 6 6 6 10 0 8-12 29-8 15-37 53-28 36-45 50-15 14-22 14-19 0-37-22t-18-55z m90 191q0-13 16-45 14-27 45-68 31-40 56-62 24-20 36-20 7 0 14 7 7 8 7 16 0 12-18 58-21 51-46 92-22 35-39 49-16 15-31 15-11 0-25-15-15-15-15-27z m45 432q0-34 24-107 22-71 66-190 10 6 28 6 1 0 7-1t11-1q4 0 26-2l-69 200q-28 80-44 104-13 21-26 21-9 0-15-8-7-9-7-23z m166-510q9-23 19-50 20 23 40 38-5 1-15 3t-15 3q-20 4-29 7z m105 204l67-12q45 124 69 199 25 81 25 96 0 16-7 25-4 7-15 7-14 0-31-27-19-29-43-101z" horiz-adv-x="716" />
<glyph glyph-name="instagram" unicode="&#xe858;" d="M0-50l0 800q0 41 30 71t71 30l800 0q41 0 71-30t30-71l0-800q0-41-30-71t-71-30l-800 0q-41 0-71 30t-30 71z m200 400q0-124 88-212t212-88 212 88 88 212-88 212-212 88-212-88-88-212z m100 0q0 82 59 141t141 59 141-59 59-141-59-141-141-59-141 59-59 141z" horiz-adv-x="1000" />
<glyph glyph-name="dwolla" unicode="&#xe859;" d="M0 4q0 76 57 112 29 19 54 29 114 49 122 54-21 31-54 68-51 60-60 71-109 132-94 247 7 55 42 91 13 14 42 32 37 21 45 25 5 2 23 10t30 13l47 21 69 30q58 25 86 40 20 11 25-6 0-11-27-25-61-40-64-114-1-29 5-58t13-47 26-46 27-38 35-40 32-36q6-7 29-33t33-38 28-38 26-46 16-49 8-59q0-38-13-68-12-32-29-52t-48-40q-35-21-53-30-23-12-61-27-16-6-36-15t-23-10l-89-39-36-18q-32-16-50-21-85-21-133 24t-48 123z" horiz-adv-x="617" />
<glyph glyph-name="appnet" unicode="&#xe85a;" d="M2 414q10 159 75 266 49 80 96 114t139 50q30 5 57 6t51-4 44-12 39-20 34-26 30-32 27-35 24-39 21-40 21-41q7-14 14-30t15-36 13-31q8 48 57 188t68 145q91 21 145 0 4-2 9-8t7-8q-1-18-6-39t-9-33-13-37-12-31l-160-439q-7-34 19-90t68-93 74-22q10 5 18 21t14 21q18 15 71 16t67-19q16-29 11-63t-31-66-60-57-74-37-74-5q-29 6-54 19t-41 26-34 37-28 39-27 45-26 44q-4-2-6-4-24-58-81-107t-127-75-150-20-145 54q-85 62-131 204t-37 300z m153 13q-13-108 9-211t73-141q28-21 56-31t52-12 49 10 43 21 41 35 36 40 33 46 28 43 25 42q5 9 8 14-38 161-64 223-73 173-202 155-56-8-81-22t-50-49q-41-55-54-163z" horiz-adv-x="1126" />
<glyph glyph-name="statusnet" unicode="&#xe85b;" d="M0 432q0 122 93 210 58 55 134 75t153-2 138-85q44-46 63-107t15-116-24-103q-19-41-3-93t40-89 51-69 27-33l-11 9q-10 10-22 21t-31 26-38 27-43 25-45 19-45 8-43-7q-47-19-104-20t-117 22-103 69q-86 91-86 213z m132 20q-9-69 34-125t112-65 124 34 64 112-33 124-111 64-125-33-65-111z m478 294q21 59 74 88t113 9q58-18 87-72t9-116q-24-72-114-104-31-11-56-34t-35-38-23-41q22 94-24 159-55 80-31 149z m38-495q2 92 63 155t152 63q89 0 152-62t63-157q0-110-110-195-38-29-62-71t-31-68-13-67q-4 40-10 67t-30 70-65 74q-111 83-110 191z m38 472q-11-27 1-55t39-39 54 0 38 38q11 28 0 55t-38 38-55 0-39-38z m67-515q19-46 66-66 46-19 92 1t65 66 0 92-65 66q-46 19-92 0t-65-65q-19-47-1-93z" horiz-adv-x="1078" />
<glyph glyph-name="acrobat" unicode="&#xe85c;" d="M0-108q0 51 61 107t123 89l15-22q-44-32-91-83t-59-90q87 27 265 379 65 131 103 261-33 107-33 202 0 115 47 115 23 0 34-2t21-13 10-34q0-15-3-28l-27 1q-2 26-17 41-12-20-12-69 0-38 9-94 3 18 9 54t10 54l26-3q-2-152-14-218 36-107 87-174t143-119q68 7 116 7 178 0 178-70 0-11-5-24l-3 1q-5-42-67-42-104 0-240 72-220-22-389-82-147-257-235-257-7 0-14 2t-13 5-14 7-12 7q-8 8-8 22z m318 255q134 54 298 85-103 73-164 209-36-121-134-294z m486 50q90-35 142-35 15 0 22 3 0 32-145 32l-19 0z" horiz-adv-x="999" />
<glyph glyph-name="drupal" unicode="&#xe85d;" d="M0 282q0 70 21 133t49 103 65 75 57 48 38 24q10 5 30 15t31 16 29 17 35 25q42 34 50 113 73-88 106-110 25-17 74-39t74-37q19-11 36-24t54-49 63-76 47-105 21-137q0-186-128-305t-307-119q-116 0-217 56t-163 156-62 221z m190-151q-2-63 42-93 31-21 94-21 41 0 98 30t105 59 71 28q23-1 78-56t71-56q20-1 34 9t32 36q33 49 33 117 0 29-15 55t-47 26q-22 0-92-47t-94-48q-22 0-61 28t-89 56-99 28q-65-1-112-45t-48-102z m205-180q-12-10 0-20 46-42 165-31 23 2 48 12t37 18 17 12 4 16q-3 12-14 3-41-32-124-32-75 0-110 28-3 2-8 2t-14-7z m90 52q7-8 28 11 2 1 8 6t8 7 8 5 10 5 12 2 16 1q16 0 26-5t13-8 8-13q5-10 8-12t8 1q12 7 7 20-9 26-22 34-12 9-43 9-26 0-41-6-17-7-44-32-15-12-7-25z" horiz-adv-x="875" />
<glyph glyph-name="buffer" unicode="&#xe85e;" d="M0 88q11 15 32 26t49 20 41 16q19 0 34-5t34-15 25-13q47-21 260-119 19-4 36 0t40 18 24 15q20 9 77 35t88 40q4 2 42 21t61 24q13 2 28-1t24-8 23-13 18-11 16-6 19-8 11-11q3-4 4-14-10-13-31-24t-51-22-40-16q-43-20-129-62t-129-62q-7-3-21-12t-24-13-26-11-28-7-30 2l-264 123q-6 3-32 14t-52 22-54 24-47 24-22 17q-4 4-4 13z m0 268q11 15 32 25t50 20 42 15q19 0 34-5t35-15 26-14q42-19 127-58t128-59q19-5 37-1t39 17 25 15q68 32 160 72 11 5 32 17t39 20 36 11q16 3 32-1t38-17 23-13q5-3 16-7t18-8 12-11q3-5 4-14-10-14-32-26t-53-23-41-16q-48-23-136-65t-123-59q-7-3-26-14t-29-15-33-10-36 0q-214 101-260 122-6 3-44 19t-70 30-62 30-34 23q-4 4-4 14z m0 267q10 15 32 27t53 23 41 16l348 162q30 0 54-7t57-26 40-22q39-18 117-55t117-55q4-2 37-15t55-24 27-20q3-4 4-13-9-13-26-23t-44-19-35-14q-47-22-140-67t-139-67q-6-3-20-11t-23-13-25-11-27-6-28 1q-245 114-256 119-4 2-63 28t-102 47-48 30q-4 4-4 13z" horiz-adv-x="979" />
<glyph glyph-name="pocket" unicode="&#xe85f;" d="M2 520q-8 215 12 270 4 9 10 16t14 13 14 10 18 10 17 9q136 0 386 2t329 2l94 0t55-1 57-3 45-6 33-10q16-9 27-24t17-30 8-40 2-42-1-50-1-50q0-207-23-327t-96-213q-70-88-165-140t-193-63-200 11-187 74-151 133-96 182q-15 52-23 267z m232 2q-26-28 15-90t104-124q2-2 40-40t54-52 47-36 57-29q11-3 23-3t20 1 20 7 16 8 16 12 12 11 12 11l3 3q9 9 61 56t86 81 68 79 35 76q-15 40-38 56t-51 9-56-26-59-48-56-56-50-51-37-33q-27 16-73 60t-82 82-74 64-55 15q-25-15-56-41z" horiz-adv-x="1136" />
<glyph glyph-name="github-circled" unicode="&#xe840;" d="M0 351q0 102 40 194 79 186 265 265 92 40 194 40t194-40q184-78 265-265 40-95 40-194t-40-194q-81-188-265-267-92-40-194-40t-194 40q-186 80-265 267-40 92-40 194z m78 0q0-141 84-252 83-109 217-155l0 80q0 60 40 87-20 1-47 7-51 9-87 32-91 55-91 199 0 75 50 128-23 59 5 128l20 0q10 0 25-5 39-12 87-44 61 16 120 16t121-16q39 26 73 40 32 12 46 10l12-1q27-69 5-128 50-53 50-128 0-112-55-169-30-32-79-50-41-15-91-19 41-29 41-87l0-80q129 46 213 157 82 110 82 250 0 85-33 164-32 76-90 134-56 56-134 89-80 34-163 34-82 0-164-34-75-32-134-89-56-58-90-134-33-79-33-164z" horiz-adv-x="998" />
<glyph glyph-name="bitbucket" unicode="&#xe860;" d="M0 706q0 60 127 102t306 42q180 0 307-42t127-102q0-12-72-440-9-46-111-89t-250-43-250 43-110 89q-73 414-73 440z m107-581l0 4q0 17 15 17 6 0 12-5 47-37 122-58t126-23l51-3q8 0 22 1t53 5 75 13 79 25 73 41l11 5q16 0 16-17 0-2-1-4-22-121-30-161-11-49-96-82t-200-33-200 33-95 82q-19 95-31 161z m49 596q0-24 82-42t196-18q115 0 197 17t82 41q0 25-82 43t-197 18-196-17-81-42z m139-353q0-57 41-98t98-41 98 41 41 98-41 98-98 41-98-41-41-98z m69 0q0-28 20-49t49-21 49 21 20 49-20 49-49 21-49-21-20-49z" horiz-adv-x="866" />
<glyph glyph-name="lego" unicode="&#xe861;" d="M0 141l24 0q-7 14-7 34 0 65 46 186t88 184q32 49 84 49 45 0 45-34 0-52-72-199l82 0q20 62 53 126 34 68 73 91t116 23q29 0 57-14t28-40-13-42-38-23-44-9-46-2l-9 0q-15-22-28-58 18 3 37 3 64 0 64-38 0-9-3-18-16-59-88-59-23 0-50 5-16-48-21-73 52 10 77 10t43-12 18-36q0-34-24-57t-54-31-64-8q-65 0-96 41-20 24-20 62 0 23 3 45 8 50 28 112l-82 0q-9-19-26-56t-25-55l-1 0-7-14q22 2 34 2 59 0 59-40 0-51-39-74t-93-23q-65 0-85 39l-24 0z m538 78q0 38 16 95t34 99q19 45 36 74t43 57 61 41 81 14q50 0 87-20t37-65q0-38-21-69t-57-31q-52 0-52 33 0 6 4 18t4 19q0 13-22 13-17 0-33-14t-29-44-18-41-15-39q-32-84-32-119 0-29 28-29 25 0 44 25t26 53q-42 2-42 35 0 37 28 54t66 17q52 0 65-35 4-11 4-26 0-50-29-106t-69-87q-53-41-120-41-68 0-100 41-24 29-24 78z m329-78l42 0q-18 26-18 66 0 79 49 204 19 47 33 74t37 56 57 42 79 13q120 0 120-115 0-50-22-120-15-51-41-110-37-77-73-109-46-41-119-41-72 0-101 41l-42 0z m144 109l3 0q-6-35 22-35 23 0 43 38l-2 0q17 36 45 116t28 103q0 24-21 24-20 0-33-16-18-26-52-119-25-67-33-110z" horiz-adv-x="1265" />
<glyph glyph-name="login" unicode="&#xe862;" d="M0 350q0 136 67 251t182 182 251 67 251-67 182-182 67-251-67-251-182-182-251-67-251 67-182 182-67 251z m208-319q0-26 26-26l176 0q28 0 28 26l0 48q0 26-28 26l-29 0 0 460 29 0q28 0 28 26l0 48q0 26-28 26l-176 0q-26 0-26-26l0-48q0-26 26-26l31 0 0-460-31 0q-26 0-26-26l0-48z m277-4q0-24 24-24l59 0q22 0 22 24l0 257q0 103 79 103 42 0 42-51l0-309q0-24 22-24l61 0q21 0 21 24l0 333q0 122-110 122-67 0-122-64l-7 36q-4 22-24 22l-43 0q-24 0-24-25l0-424z" horiz-adv-x="1000" />
<glyph glyph-name="stackoverflow" unicode="&#xe863;" d="M0-150l0 417 76-1-3-335 501 0 0 334 79 0 0-415-653 0z m123 219l392 0 0-83-392 0 0 83z m1 65l8 85 393-38-8-85z m21 173l23 82 380-107-24-82z m71 201l44 73 338-204-45-73z m167 205l69 50 230-321-70-50z m252 123l84 14 65-389-84-14z" horiz-adv-x="784" />
<glyph glyph-name="hackernews" unicode="&#xe864;" d="M0 850l161 0 197-301q49-75 102-170 48 85 109 177l194 294 154 0-399-576 0-424-133 0 0 424z" horiz-adv-x="917" />
<glyph glyph-name="lkdto" unicode="&#xe865;" d="M0 335l0 34q0 113 84 197t215 84q136 0 247-112 21-20 54-62l96-126q39-52 52-65 74-74 147-74 59 0 96 40 33 33 38 85 1 5 1 14 0 22-6 41-9 31-33 57 0 1-1 1-38 40-95 40-78 0-147-74l-85 111q-6 8-10 13 55 60 113 86t134 26q124 0 214-84l1 0 1-1q83-83 83-215 0-30-5-63-16-89-79-153-61-62-150-79-33-5-62-5-140 0-248 109-23 23-56 67l-96 124q-39 52-52 65-74 74-149 74-22 0-40-6-29-8-55-34-29-32-36-71-3-14-3-28 0-57 37-97l2-2q39-40 97-40 79 0 147 75l84-110 9-12q-57-61-115-87t-130-26q-131 0-216 83l0 1q-63 63-78 153-5 25-5 47z" horiz-adv-x="1199" />
<glyph glyph-name="info-1" unicode="&#xe8e1;" d="M352 850q48 0 74-27t26-69q0-50-39-88t-95-38q-48 0-74 26t-24 72q0 46 35 85t97 39z m-206-1000q-100 0-54 178l60 254q14 56 0 56-12 0-54-18t-72-38l-26 44q90 78 189 126t151 48q78 0 36-162l-70-266q-16-64 6-64 44 0 118 60l30-40q-84-86-175-132t-139-46z" horiz-adv-x="460" />
<glyph glyph-name="left-thin" unicode="&#xe94d;" d="M240 100l-240 250 240 250 0-160 740 0 0-178-740 0 0-162z" horiz-adv-x="980" />
<glyph glyph-name="up" unicode="&#xe8a6;" d="M213 366l-213 0 308 306 310-309-213 0 3-336-195 0 0 339z" horiz-adv-x="618" />
<glyph glyph-name="up-thin" unicode="&#xe94f;" d="M500 602l-162 0 0-742-176 0 0 742-162 0 250 238z" horiz-adv-x="500" />
<glyph glyph-name="right-thin" unicode="&#xe94e;" d="M742 100l0 162-742 0 0 178 742 0 0 160 238-250z" horiz-adv-x="980" />
<glyph glyph-name="down-thin" unicode="&#xe94c;" d="M500 100l-250-240-250 240 162 0 0 740 176 0 0-740 162 0z" horiz-adv-x="500" />
<glyph glyph-name="down" unicode="&#xe8a5;" d="M405 334l213 0-308-306-310 309 213 0-3 336 195 0 0-339z" horiz-adv-x="618" />
<glyph glyph-name="level-up" unicode="&#xe954;" d="M200 350l0-90-200 160 200 170 0-100 550 0q40 0 70-29t30-71l0-280-140 0 0 240-510 0z" horiz-adv-x="850" />
<glyph glyph-name="level-down" unicode="&#xe953;" d="M100 200q-42 0-71 30t-29 70l0 350 140 0 0-310 364 0 0 150 240-220-240-220 0 150-404 0z" horiz-adv-x="744" />
<glyph glyph-name="switch" unicode="&#xe957;" d="M700 592l0-140-500 0 0-90-200 160 200 170 0-100 500 0z m300-420l-200-160 0 90-500 0 0 140 500 0 0 100z" horiz-adv-x="1000" />
<glyph glyph-name="infinity" unicode="&#xe983;" d="M796 570q84 0 144-53t60-167q0-112-60-166t-144-54q-78 0-157 40t-139 106q-58-66-137-106t-157-40q-86 0-146 54t-60 166q0 114 60 167t146 53q78 0 157-39t137-105q58 66 138 105t158 39z m-590-352q60 0 127 37t113 95q-46 58-112 95t-128 37q-114 0-114-132t114-132z m590 0q114 0 114 132t-114 132q-62 0-129-37t-111-95q44-58 111-95t129-37z" horiz-adv-x="1000" />
<glyph glyph-name="plus-squared" unicode="&#xe8db;" d="M700 750q42 0 71-29t29-71l0-600q0-40-29-70t-71-30l-600 0q-40 0-70 30t-30 70l0 600q0 42 30 71t70 29l600 0z m-50-450l0 100-200 0 0 200-100 0 0-200-200 0 0-100 200 0 0-200 100 0 0 200 200 0z" horiz-adv-x="800" />
<glyph glyph-name="minus-squared" unicode="&#xe8de;" d="M700 750q42 0 71-29t29-71l0-600q0-40-29-70t-71-30l-600 0q-40 0-70 30t-30 70l0 600q0 42 30 71t70 29l600 0z m-50-450l0 100-500 0 0-100 500 0z" horiz-adv-x="800" />
<glyph glyph-name="home-1" unicode="&#xe8e4;" d="M888 336q16-16 11-27t-27-11l-84 0 0-310q0-14-1-21t-8-13-23-6l-204 0 0 310-204 0 0-310-194 0q-28 0-35 10t-7 30l0 310-84 0q-22 0-27 11t11 27l400 402q16 16 38 16t38-16z" horiz-adv-x="900" />
<glyph glyph-name="home" unicode="&#xe878;" d="M885 575l276 0 0-90-1161 0 0 90 548 0 0 173 338 0 0-173z m-778-134l944 0 0-489-569 0 0 300-170 0 0-300-205 0 0 489z m671-245l0 176-146 0 0-176 146 0z m191 0l0 176-146 0 0-176 146 0z" horiz-adv-x="1161" />
<glyph glyph-name="keyboard" unicode="&#xe8fb;" d="M930 650q28 0 49-21t21-49l0-460q0-30-21-50t-49-20l-860 0q-28 0-49 20t-21 50l0 460q0 28 21 49t49 21l860 0z m-380-100l0-100 100 0 0 100-100 0z m150-150l-100 0 0-100 100 0 0 100z m-300 150l0-100 100 0 0 100-100 0z m150-150l-100 0 0-100 100 0 0 100z m-300 150l0-100 100 0 0 100-100 0z m150-150l-100 0 0-100 100 0 0 100z m-300 150l0-100 100 0 0 100-100 0z m150-150l-100 0 0-100 100 0 0 100z m-50-250l0 100-100 0 0-100 100 0z m550 0l0 100-500 0 0-100 500 0z m150 0l0 100-100 0 0-100 100 0z m-150 150l100 0 0 100-100 0 0-100z m150 150l0 100-200 0 0-100 200 0z" horiz-adv-x="1000" />
<glyph glyph-name="erase" unicode="&#xe984;" d="M902 700q42 0 71-29t29-71l0-500q0-40-29-70t-71-30l-478 0q-38 0-70 28l-340 296q-28 26 0 54l340 296q30 26 70 26l478 0z m-140-550l72 74-128 126 128 128-72 72-128-126-128 126-72-72 128-128-128-126 72-74 128 128z" horiz-adv-x="1002" />
<glyph glyph-name="pause" unicode="&#xe95a;" d="M440 700q90 0 90-64l0-570q0-66-90-66t-90 66l0 570q0 64 90 64z m-350 0q90 0 90-64l0-570q0-66-90-66t-90 66l0 570q0 64 90 64z" horiz-adv-x="530" />
<glyph glyph-name="fast-forward" unicode="&#xe95e;" d="M866 374q14-10 14-24t-14-22l-372-248q-22-14-37-6t-15 36l0 482q0 28 15 36t37-6z m-454 0q14-10 14-24t-14-22l-360-248q-20-14-36-6t-16 36l0 482q0 28 16 36t36-6z" horiz-adv-x="880" />
<glyph glyph-name="fast-backward" unicode="&#xe95f;" d="M0 350q0 14 14 24l374 248q20 14 36 6t16-36l0-482q0-28-16-36t-36 6l-374 248q-14 8-14 22z m454 0q0 14 14 24l360 248q20 14 36 6t16-36l0-482q0-28-16-36t-36 6l-360 248q-14 8-14 22z" horiz-adv-x="880" />
<glyph glyph-name="to-end" unicode="&#xe95c;" d="M412 374q14-10 14-24 0-12-14-22l-362-228q-22-14-36-5t-14 35l0 442q0 26 14 35t36-5z m114 268q74 0 74-58l0-466q0-58-74-58-76 0-76 58l0 466q0 58 76 58z" horiz-adv-x="600" />
<glyph glyph-name="to-start" unicode="&#xe95d;" d="M174 350q0 14 14 24l364 228q20 14 34 5t14-35l0-442q0-26-14-35t-34 5l-364 228q-14 10-14 22z m-174 234q0 58 76 58 74 0 74-58l0-466q0-58-74-58-76 0-76 58l0 466z" horiz-adv-x="600" />
<glyph glyph-name="hourglass" unicode="&#xe924;" d="M560 622q0-44-48-96t-97-99-49-77 49-76 97-97 48-97l0-118q0-34-86-73t-194-39-194 39-86 73l0 118q0 46 48 97t97 97 49 76-49 77-97 99-48 96l0 118q0 32 87 71t193 39 193-39 87-71l0-118z m-482 112l-18-14q-4-8 4-14 92-52 216-52 132 0 220 50 14 10-16 30-96 54-202 54-120 0-204-54z m228-384q0 18 4 33t18 33 20 25 31 31 29 28q92 92 92 122l2 50q-100-54-222-54t-222 54l4-50q0-32 90-122 6-6 22-21t23-22l19-19t17-21 11-20 9-23 3-24q0-10-1-19t-6-18-8-16-11-17l-12-15t-15-16-16-15-18-16-17-16q-90-90-90-122l0-66q8 4 66 23t92 43 34 58q0 30 26 30t26-30q0-34 33-58t94-43 67-23l0 66q0 30-92 122-4 4-21 20t-22 21-18 19-18 22-12 20-9 23-2 23z" horiz-adv-x="560" />
<glyph glyph-name="stop-1" unicode="&#xe959;" d="M526 650q74 0 74-64l0-470q0-66-74-66l-450 0q-76 0-76 66l0 470q0 36 18 50t58 14l450 0z" horiz-adv-x="600" />
<glyph glyph-name="up-dir-1" unicode="&#xe947;" d="M0 150l230 400 230-400-460 0z" horiz-adv-x="460" />
<glyph glyph-name="up-dir" unicode="&#xe8a4;" d="M0 114l269 473 271-473-540 0z" horiz-adv-x="540" />
<glyph glyph-name="play" unicode="&#xe958;" d="M486 376q14-10 14-26 0-14-14-24l-428-266q-24-16-41-6t-17 40l0 514q0 30 17 40t41-6z" horiz-adv-x="500" />
<glyph glyph-name="right-dir" unicode="&#xe8a3;" d="M0 608l510-256-510-259 0 515z" horiz-adv-x="510" />
<glyph glyph-name="right-dir-1" unicode="&#xe946;" d="M0 580l400-230-400-230 0 460z" horiz-adv-x="400" />
<glyph glyph-name="down-dir" unicode="&#xe8a1;" d="M540 587l-269-473-271 473 540 0z" horiz-adv-x="540" />
<glyph glyph-name="down-dir-1" unicode="&#xe944;" d="M460 550l-230-400-230 400 460 0z" horiz-adv-x="460" />
<glyph glyph-name="left-dir" unicode="&#xe8a2;" d="M510 93l-510 256 510 259 0-515z" horiz-adv-x="510" />
<glyph glyph-name="left-dir-1" unicode="&#xe945;" d="M400 580l0-460-400 230z" horiz-adv-x="400" />
<glyph glyph-name="adjust" unicode="&#xe928;" d="M950 390q20 0 35-12t15-28q0-40-50-40l-48 0q-50 0-50 40 0 16 15 28t35 12l48 0z m-450 234q114 0 195-80t81-194q0-116-81-196t-195-80-194 80-80 196q0 114 80 194t194 80z m6-474l0 400q-86 0-146-59t-60-141q0-84 60-142t146-58z m-356 200q0-40-50-40l-50 0q-50 0-50 40 0 16 15 28t35 12l50 0q20 0 35-12t15-28z m350 350q-16 0-28 15t-12 35l0 50q0 20 12 35t28 15 28-15 12-35l0-50q0-20-12-35t-28-15z m0-700q16 0 28-15t12-35l0-50q0-20-12-35t-28-15-28 15-12 35l0 50q0 20 12 35t28 15z m368 660l-34-34q-34-34-64-8-28 28 8 64 4 6 34 36 36 34 64 6t-8-64z m-700-588q14 16 33 18t29-10q12-12 10-31t-16-33l-36-36q-14-14-33-16t-29 10q-30 28 6 64 6 4 36 34z m20 646l36-36q36-36 6-64-10-10-29-8t-33 16q-30 30-36 34-14 14-16 33t10 31q10 12 29 10t33-16z m590-702q-36 36-8 64t64-8l34-34q36-36 8-64t-64 6q-30 30-34 36z" horiz-adv-x="1000" />
<glyph glyph-name="cloud" unicode="&#xe973;" d="M760 494q100 0 170-68t70-166-70-166-170-68l-578 0q-74 0-128 52t-54 124q0 74 53 126t129 52q2 0 10-1t10-1q-2 12-2 38 0 108 78 184t188 76q90 0 160-52t94-134q28 4 40 4z" horiz-adv-x="1000" />
<glyph glyph-name="star-1" unicode="&#xe8cb;" d="M440 790l120-336 320 0-262-196 94-348-272 208-272-208 94 348-262 196 320 0z" horiz-adv-x="880" />
<glyph glyph-name="star" unicode="&#xe86a;" d="M320 445l99 303 99-303 320 0-259-188 99-305-259 188-260-188 100 305-259 188 320 0z" horiz-adv-x="838" />
<glyph glyph-name="star-empty" unicode="&#xe8cc;" d="M880 454l-262-196 94-348-272 208-272-208 94 348-262 196 320 0 120 336 120-336 320 0z m-440-238l150-124-62 178 144 114-176-4-56 202-54-202-176 4 142-114-62-178z" horiz-adv-x="880" />
<glyph glyph-name="cup" unicode="&#xe907;" d="M340 760q152 0 249-41t91-87l-72-594q-2-14-34-36t-97-42-137-20-136 20-97 42-35 36l-72 594q-4 28 36 57t121 50 183 21z m0-216q72 0 137 15t98 33 33 30-33 29-98 32-137 15-137-15-98-32-33-29 33-30 98-33 137-15z" horiz-adv-x="681" />
<glyph glyph-name="menu" unicode="&#xe8d4;" d="M650 400q22 0 36-15t14-35-15-35-35-15l-600 0q-20 0-35 15t-15 35 14 35 36 15l600 0z m-600 100q-20 0-35 15t-15 35 14 35 36 15l600 0q22 0 36-15t14-35-15-35-35-15l-600 0z m600-300q22 0 36-15t14-35-15-35-35-15l-600 0q-20 0-35 15t-15 35 14 35 36 15l600 0z" horiz-adv-x="700" />
<glyph glyph-name="th-list" unicode="&#xe873;" d="M160 660l0-161-160 0 0 161 160 0z m0-230l0-163-160 0 0 163 160 0z m0-230l0-160-160 0 0 160 160 0z m641 406l0-81-534 0 0 81 534 0z m0-230l0-81-534 0 0 81 534 0z m0-218l0-81-534 0 0 81 534 0z" horiz-adv-x="801" />
<glyph glyph-name="moon" unicode="&#xe976;" d="M524 238q106 106 125 252t-53 270q52-26 96-72 128-128 128-309t-128-309-310-128-310 128q-40 40-72 94 124-70 271-51t253 125z" horiz-adv-x="820" />
<glyph glyph-name="heart-empty" unicode="&#xe8ca;" d="M790 642q70-64 70-156t-70-156l-360-330-360 330q-70 64-70 156t70 156q64 58 152 58t150-58l58-52 56 52q64 58 152 58t152-58z m-54-260q42 40 42 104 0 66-38 100-38 38-102 38-52 0-104-48l-104-92-106 92q-48 48-102 48-64 0-104-38-38-36-38-100 0-66 44-104l306-286z" horiz-adv-x="860" />
<glyph glyph-name="heart-1" unicode="&#xe8c9;" d="M790 644q70-64 70-156t-70-158l-360-330-360 330q-70 66-70 158t70 156q62 58 151 58t153-58l56-52 58 52q62 58 150 58t152-58z" horiz-adv-x="860" />
<glyph glyph-name="heart" unicode="&#xe869;" d="M380 18l-285 284c-66 65-95 136-95 200 0 109 73 181 183 181 103 0 138-48 198-116 60 69 95 116 198 116 110 0 183-73 183-181 0-64-29-135-95-200z" horiz-adv-x="760" />
<glyph glyph-name="note" unicode="&#xe8c3;" d="M381 820q0-42 46-97t90-100 61-119-39-154q-20-34-26-16-2 6 0 16 10 18 6 56t-13 78-43 73-82 41l0-536q2-48-37-95t-105-71q-74-28-143-8t-89 76 20 115 116 85q86 30 158 4l0 652 80 0z" horiz-adv-x="582" />
<glyph glyph-name="note-beamed" unicode="&#xe8c4;" d="M206 714l534 116 0-704q2-42-30-81t-86-59q-64-24-110-8t-62 64q-18 48 7 97t85 73q52 20 106 10l0 376-354-82 0-490q0-42-32-81t-86-59q-64-22-109-7t-61 63q-18 48 6 97t84 73q54 20 108 10l0 592z" horiz-adv-x="740" />
<glyph glyph-name="layout" unicode="&#xe8d3;" d="M170 650q80 0 80-80l0-90q0-80-80-80l-90 0q-80 0-80 80l0 90q0 80 80 80l90 0z m350 0q80 0 80-80l0-90q0-80-80-80l-90 0q-80 0-80 80l0 90q0 80 80 80l90 0z m-350-350q80 0 80-80l0-90q0-80-80-80l-90 0q-80 0-80 80l0 90q0 80 80 80l90 0z m350 0q80 0 80-80l0-90q0-80-80-80l-90 0q-80 0-80 80l0 90q0 80 80 80l90 0z" horiz-adv-x="600" />
<glyph glyph-name="th" unicode="&#xe872;" d="M160 660l0-161-160 0 0 161 160 0z m231 0l0-161-161 0 0 161 161 0z m-231-230l0-163-160 0 0 163 160 0z m231 0l0-163-161 0 0 163 161 0z m-231-230l0-160-160 0 0 160 160 0z m231 0l0-160-161 0 0 160 161 0z m229 460l0-161-161 0 0 161 161 0z m229 0l0-161-160 0 0 161 160 0z m-229-229l0-163-161 0 0 163 161 0z m0-231l0-160-161 0 0 160 161 0z m229 231l0-163-160 0 0 163 160 0z m0-229l0-163-160 0 0 163 160 0z" horiz-adv-x="849" />
<glyph glyph-name="flag" unicode="&#xe8ed;" d="M874 616q14 6 22-1t0-19q-96-138-164-213t-110-90-73-2-60 37-63 40-93-4-139-86l90-352-100 0-184 720 92 34q90 66 152 86t98 3 64-51 62-71 79-62 129-20 198 51z" horiz-adv-x="900" />
<glyph glyph-name="tools" unicode="&#xe917;" d="M155 506q-8-8-11-22t-3-25-2-11q-2-2-17-15t-19-17q-16-14-28 4l-70 76q-10 12 2 24 2 2 18 14t20 16q6 6 27 6t37 14q14 14 18 38t10 30q2 0 9 7t26 22 41 31q134 90 186 96 122 0 148-2 12 0-8-8-120-52-152-76-80-56-36-114 34-46 38-48 8-8-2-14-2-2-38-35t-38-35q-14-8-18-4-42 48-71 60t-67-12z m286-26l410-476q18-22-2-38l-48-42q-22-14-38 4l-414 472q-8 8 0 20l72 62q12 8 20-2z m554 202q16-104-16-166-50-88-154-62-56 12-100-32l-82-78-68 78 68 70q24 24 31 53t6 65 5 58q12 56 140 112 12 6 18-3t2-15q-12-12-46-80-14-10-12-35t40-53q58-40 96 22 6 12 26 41t22 33q4 10 13 9t11-17z m-858-684l254 248 76-86-246-242q-20-20-38-4l-46 46q-22 18 0 38z" horiz-adv-x="1000" />
<glyph glyph-name="cog" unicode="&#xe916;" d="M760 350q0-72 80-122-12-40-34-82-70 18-136-44-54-58-34-136-40-20-84-36-46 82-132 82t-132-82q-44 16-84 36 20 80-34 136-54 54-136 34-14 26-34 82 82 52 82 132 0 72-82 124 20 56 34 82 74-18 136 44 54 56 34 136 42 22 84 34 46-80 132-80t132 80q42-12 84-34-20-78 34-136 66-62 136-44 22-42 34-82-80-50-80-124z m-340-182q76 0 129 53t53 129-53 130-129 54-129-54-53-130 53-129 129-53z" horiz-adv-x="840" />
<glyph glyph-name="attention" unicode="&#xe887;" d="M905 77c8-14 11-30 11-45 0-53-41-90-90-90l-735 0c-49 0-91 40-91 90 0 15 4 31 13 45l369 638c15 28 44 45 78 45 33 0 61-18 78-45z m-513 473l0-299 134 0 0 299-134 0z m68-369c-43 0-75-33-75-76 0-41 33-74 75-74s75 33 75 74c0 43-33 76-75 76z" horiz-adv-x="916" />
<glyph glyph-name="attention-1" unicode="&#xe8ff;" d="M957-24q10-16 0-34-10-16-30-16l-892 0q-18 0-28 16-12 18-2 34l446 782q8 18 30 18t30-18z m-420 50l0 100-110 0 0-100 110 0z m0 174l0 300-110 0 0-300 110 0z" horiz-adv-x="962" />
<glyph glyph-name="flash" unicode="&#xe975;" d="M40-100q-4 4 35 94t79 182 38 98-94 45-98 55q-4 12 84 120t180 209 96 97q6-4-74-186t-78-186 95-43 97-57q4-20-174-227t-186-201z" horiz-adv-x="400" />
<glyph glyph-name="record" unicode="&#xe95b;" d="M350 700q146 0 248-102t102-248q0-144-102-247t-248-103-248 103-102 247q0 146 102 248t248 102z" horiz-adv-x="700" />
<glyph glyph-name="cloud-thunder" unicode="&#xe974;" d="M760 494q100 0 170-68t70-166-70-166-170-68l-578 0q-74 0-128 52t-54 124q0 74 53 126t129 52q2 0 10-1t10-1q-2 12-2 38 0 108 78 184t188 76q90 0 160-52t94-134q28 4 40 4z m-192-216q14 16 14 30 0 20-30 32l-4 0q-26 14-38 16l50 116q6 0 6 20 0 14-8 18-16 10-34-8-2-2-30-32t-61-66-45-52q-12-18-12-30 0-22 30-30l4-2q8-4 38-16l-52-114-2-8q-2-8-2-14 0-10 8-18 18-10 34 10 100 100 134 148z" horiz-adv-x="1000" />
<glyph glyph-name="tape" unicode="&#xe989;" d="M770 580q96 0 163-67t67-163q0-94-67-162t-163-68l-540 0q-94 0-162 68t-68 162q0 96 68 163t162 67q96 0 163-67t67-163q0-72-40-130l160 0q-40 64-40 130 0 96 68 163t162 67z m-670-230q0-52 38-91t92-39 92 39 38 91q0 54-38 92t-92 38-92-38-38-92z m670-130q54 0 92 39t38 91q0 54-38 92t-92 38-92-38-38-92q0-52 38-91t92-39z" horiz-adv-x="1000" />
<glyph glyph-name="flight" unicode="&#xe977;" d="M268-120l124 400-180 0-112-100-100 0 80 170-80 170 100 0 112-100 180 0-124 400 100 0 224-400 274 0t36-4 46-11 36-21 16-34q0-32-38-49t-74-19l-38-2-258 0-224-400-100 0z" horiz-adv-x="1000" />
<glyph glyph-name="mail-1" unicode="&#xe8c8;" d="M30 586q-32 18-28 40 2 14 26 14l846 0q38 0 20-32-8-14-24-22-14-6-192-102t-182-98q-16-10-46-10-28 0-46 10-4 2-182 98t-192 102z m850-100q20 10 20-10l0-368q0-16-17-32t-33-16l-800 0q-16 0-33 16t-17 32l0 368q0 20 20 10l384-200q18-10 46-10t46 10z" horiz-adv-x="900" />
<glyph glyph-name="mail" unicode="&#xe868;" d="M580 306l258-266-789 0 259 264 135-128z m-518 355l760 0-380-361z m566-309l258 243 0-509z m-629-266l0 509 259-244z" horiz-adv-x="886" />
<glyph glyph-name="edit" unicode="&#xe883;" d="M90 589l0-593 444 0 0 261 90 101 0-453-624 0 0 760 541 0-75-78-376 0z m749 180c35-34 33-88-3-124l-58-56 18 75-64 64-74-16 56 56c35 35 90 35 124 1z m-219-99c0 3 65 20 75 23l1 1 66-69c-4 0-23-75-23-75l-371-384-159-36-3 1 41 158z m-248-423l-45 46-35-6-23-21-10-40 46-45 39 9 23 23z" horiz-adv-x="864" />
<glyph glyph-name="pencil-1" unicode="&#xe8f7;" d="M718 680q32-32 47-64t15-48l0-16-252-252-290-288-238-52 50 240 290 288 252 252q54 12 126-60z m-494-640l24 24q-2 44-52 94-22 22-45 35t-35 13l-14 2-22-24-18-80q28-16 46-34 24-24 36-48z" horiz-adv-x="780" />
<glyph glyph-name="pencil" unicode="&#xe881;" d="M795 731c50-46 44-118-4-165l-46-46s35 54-38 124c-64 64-124 36-124 36l49 49c44 45 120 45 163 3z m-89-250l-493-493-210-51-4 4 55 210 493 490c9 3 30 9 60 3l-523-523-15-55 60-60 56 15 25 24 3 56-40 40 479 479c8-6 8-6 15-15 71-70 39-124 39-124z" horiz-adv-x="830" />
<glyph glyph-name="pencil-alt" unicode="&#xe882;" d="M304 310l60 118 226 226c14-9 20-13 34-26s18-20 26-34l-226-226-118-60z m-304-303l113 444 238 236s80 23 165 0l-206-205-150-78-33-178c41-43 64-65 98-98l176 34 78 150 209 209c26-89-3-169-3-169l-236-238-445-113z" horiz-adv-x="697" />
<glyph glyph-name="feather" unicode="&#xe8f8;" d="M60-138q-6-20-26-8-18 8-16 34 4 100 50 226-100 154-52 316 10-32 32-78t44-80 32-30q8 4 0 83t-11 166 25 157q22 44 80 94t104 70q-24-46-33-94t-4-78 21-32q12 0 84 120t106 122q46 4 114-29t82-65q12-24 0-79t-40-83q-44-44-146-62t-114-24q-16-10 12-34 54-48 176-20-56-80-136-114t-132-38-54-10q-4-24 49-54t101-14q-30-56-63-84t-54-35-76-11-85-8z" horiz-adv-x="698" />
<glyph glyph-name="ok" unicode="&#xe874;" d="M875 588l-535-600-340 338 123 124 196-195 420 458z" horiz-adv-x="875" />
<glyph glyph-name="check" unicode="&#xe8d5;" d="M249 0q-34 0-56 28l-180 236q-16 24-12 52t26 46 51 14 47-28l118-154 296 474q16 24 43 30t53-8q24-16 30-43t-8-53l-350-560q-20-32-56-32z" horiz-adv-x="667" />
<glyph glyph-name="cancel-1" unicode="&#xe8d6;" d="M452 194q18-18 18-43t-18-43q-18-16-43-16t-43 16l-132 152-132-152q-18-16-43-16t-43 16q-16 18-16 43t16 43l138 156-138 158q-16 18-16 43t16 43q18 16 43 16t43-16l132-152 132 152q18 16 43 16t43-16q18-18 18-43t-18-43l-138-158z" horiz-adv-x="470" />
<glyph glyph-name="cancel" unicode="&#xe875;" d="M123 654l181-181 181 181 123-124-181-179 183-184-124-121-181 183-181-183-123 123 183 183-181 179z" horiz-adv-x="609" />
<glyph glyph-name="cancel-circle" unicode="&#xe876;" d="M406 755c226 0 405-180 405-404 0-226-179-406-405-406-225 0-406 180-406 406 0 224 181 404 406 404z m84-404l125 125-85 84-124-125-126 126-84-85 126-125-126-125 84-85 126 126 124-125 85 84z" horiz-adv-x="811" />
<glyph glyph-name="cancel-circled" unicode="&#xe8d7;" d="M420 770q174 0 297-123t123-297-123-297-297-123-297 123-123 297 123 297 297 123z m86-420l154 154-86 86-154-152-152 152-88-86 154-154-154-152 88-86 152 152 154-152 86 86z" horiz-adv-x="840" />
<glyph glyph-name="cancel-squared" unicode="&#xe8d8;" d="M700 750q42 0 71-29t29-71l0-600q0-40-29-70t-71-30l-600 0q-40 0-70 30t-30 70l0 600q0 42 30 71t70 29l600 0z m-146-638l86 86-154 152 154 154-86 86-154-152-152 152-88-86 154-154-154-152 88-86 152 152z" horiz-adv-x="800" />
<glyph glyph-name="help" unicode="&#xe8df;" d="M494 740q86-62 86-184 0-64-42-124-12-20-88-80l-46-30q-40-34-48-60-6-16-8-44 0-14-16-14l-128 0q-16 0-16 12 4 98 28 124 16 22 48 48t56 42l24 14q22 16 34 34 28 44 28 70 0 40-26 78-28 36-92 36-68 0-94-44-28-42-28-92l-166 0q6 162 114 232 70 42 166 42 130 0 214-60z m-216-636q44 0 73-30t27-74q-2-46-32-73t-74-25q-44 0-73 29t-27 75 32 73 74 25z" horiz-adv-x="580" />
<glyph glyph-name="quote" unicode="&#xe9dd;" d="M146 680q146 0 184-146 38-140-40-302-80-168-224-204-32-8-66-8l0 70q112 0 182 108 54 86 26 146-16 36-62 36-60 0-103 44t-43 106 43 106 103 44z m420 0q146 0 184-146 38-140-40-302-80-168-224-204-32-8-66-8l0 70q112 0 182 108 54 86 26 146-16 36-62 36-60 0-103 44t-43 106 43 106 103 44z" horiz-adv-x="762" />
<glyph glyph-name="plus-circled" unicode="&#xe8da;" d="M420 770q174 0 297-123t123-297-123-297-297-123-297 123-123 297 123 297 297 123z m52-470l200 0 0 102-200 0 0 202-102 0 0-202-202 0 0-102 202 0 0-202 102 0 0 202z" horiz-adv-x="840" />
<glyph glyph-name="minus-circled" unicode="&#xe8dd;" d="M420 770q174 0 297-123t123-297-123-297-297-123-297 123-123 297 123 297 297 123z m252-368l-504 0 0-102 504 0 0 102z" horiz-adv-x="840" />
<glyph glyph-name="right" unicode="&#xe942;" d="M350 680l380-330-380-330 0 192-350 0 0 278 350 0 0 190z" horiz-adv-x="730" />
<glyph glyph-name="direction" unicode="&#xe905;" d="M848 768q8-8 11-16t-2-22-10-26-19-39-24-49q-54-112-147-286t-157-292l-66-118-54 380-380 56q442 246 696 368 20 10 48 25t39 20 25 9 23 1 17-11z m-92-96l-304-280 28-234z" horiz-adv-x="860" />
<glyph glyph-name="forward" unicode="&#xe8f5;" d="M540 252q-210 0-332-45t-208-197q4 20 13 53t50 117 96 148 156 117 225 53l0 192 360-322-360-334 0 218z" horiz-adv-x="900" />
<glyph glyph-name="ccw" unicode="&#xe950;" d="M532 736q170 0 289-120t119-290-119-290-289-120q-142 0-252 88l70 74q84-60 182-60 126 0 216 90t90 218-90 218-216 90q-124 0-214-87t-92-211l142 0-184-204-184 204 124 0q2 166 122 283t286 117z" horiz-adv-x="940" />
<glyph glyph-name="cw" unicode="&#xe8a7;" d="M524 265l113 0c0-85-33-165-93-225-60-61-140-94-225-94s-165 33-225 94c-60 60-94 140-94 225s34 164 94 225c60 59 139 93 223 93l-40 173 330-228-318-241 29 184c-114-1-205-93-205-205 0-114 93-206 206-206s205 93 205 206z" horiz-adv-x="636" />
<glyph glyph-name="cw-1" unicode="&#xe951;" d="M408 760q168 0 287-116t123-282l122 0-184-206-184 206 144 0q-4 124-94 210t-214 86q-126 0-216-90t-90-218q0-126 90-216t216-90q104 0 182 60l70-76q-110-88-252-88-168 0-288 120t-120 290 120 290 288 120z" horiz-adv-x="940" />
<glyph glyph-name="squares" unicode="&#xe8ba;" d="M311 504l489 0c36 0 65-30 65-65l0-404c0-35-29-65-65-65l-489 0c-35 0-65 30-65 65l0 404c0 35 30 65 65 65z m454-94l-419 0 0-346 419 0 0 346z m-146 181l-101 0 0 44-416 0 0-336 58 0 0-95-93 0c-36 0-66 30-66 65l0 395c0 36 30 66 66 66l488 0c36 0 65-30 65-66l0-73z" horiz-adv-x="865" />
<glyph glyph-name="left" unicode="&#xe941;" d="M378 20l-378 330 378 330 0-190 352 0 0-278-352 0 0-192z" horiz-adv-x="730" />
<glyph glyph-name="up-1" unicode="&#xe943;" d="M660 336l-192 0 0-350-276 0 0 350-192 0 330 380z" horiz-adv-x="660" />
<glyph glyph-name="down-1" unicode="&#xe940;" d="M660 366l-330-380-330 380 192 0 0 350 276 0 0-350 192 0z" horiz-adv-x="660" />
<glyph glyph-name="list-add" unicode="&#xe967;" d="M350 400q22 0 36-15t14-35-15-35-35-15l-300 0q-20 0-35 15t-15 35 14 35 36 15l300 0z m0-200q22 0 36-15t14-35-15-35-35-15l-300 0q-20 0-35 15t-15 35 14 35 36 15l300 0z m620 200q30 0 30-50t-30-50l-170 0 0-170q0-30-50-30t-50 30l0 170-164 0q-30 0-30 50t30 50l164 0 0 170q0 30 50 30t50-30l0-170 170 0z m-620 200q22 0 36-15t14-35-15-35-35-15l-300 0q-20 0-35 15t-15 35 14 35 36 15l300 0z" horiz-adv-x="1000" />
<glyph glyph-name="list" unicode="&#xe966;" d="M100 200q20 0 35-15t15-35-15-35-35-15l-50 0q-20 0-35 15t-15 35 14 35 36 15l50 0z m0 200q20 0 35-15t15-35-15-35-35-15l-50 0q-20 0-35 15t-15 35 14 35 36 15l50 0z m0 200q20 0 35-15t15-35-15-35-35-15l-50 0q-20 0-35 15t-15 35 14 35 36 15l50 0z m200-100q-20 0-35 15t-15 35 15 35 35 15l350 0q22 0 36-15t14-35-15-35-35-15l-350 0z m350-100q22 0 36-15t14-35-15-35-35-15l-350 0q-20 0-35 15t-15 35 15 35 35 15l350 0z m0-200q22 0 36-15t14-35-15-35-35-15l-350 0q-20 0-35 15t-15 35 15 35 35 15l350 0z" horiz-adv-x="700" />
<glyph glyph-name="left-bold" unicode="&#xe949;" d="M378 730l0-190 352 0 0-378-352 0 0-192-378 380z" horiz-adv-x="730" />
<glyph glyph-name="right-bold" unicode="&#xe94a;" d="M350 730l380-380-380-380 0 192-350 0 0 378 350 0 0 190z" horiz-adv-x="730" />
<glyph glyph-name="up-bold" unicode="&#xe94b;" d="M760 336l-192 0 0-350-376 0 0 350-192 0 380 380z" horiz-adv-x="760" />
<glyph glyph-name="down-bold" unicode="&#xe948;" d="M760 366l-380-380-380 380 192 0 0 350 376 0 0-350 192 0z" horiz-adv-x="760" />
<glyph glyph-name="user-add" unicode="&#xe8cf;" d="M620 128q180-64 180-122l0-106-800 0 0 202q36 14 82 26 94 34 129 69t35 95q0 22-23 48t-31 74q-2 12-23 25t-25 61q0 16 5 26t9 12l4 4q-8 50-12 88-6 54 40 112t160 58 160-58 42-112l-14-88q18-8 18-42-2-28-9-43t-14-17-14-8-9-18q-10-46-33-73t-23-49q0-60 36-95t130-69z m230 272l150 0 0-100-150 0 0-150-100 0 0 150-150 0 0 100 150 0 0 150 100 0 0-150z" horiz-adv-x="1000" />
<glyph glyph-name="help-circled" unicode="&#xe8e0;" d="M454 810q190 2 326-130t140-322q2-190-131-327t-323-141q-190-2-327 131t-139 323q-4 190 130 327t324 139z m-2-740q30 0 49 19t19 47q2 30-17 49t-49 19l-2 0q-28 0-47-18t-21-46q0-30 19-49t47-21l2 0z m166 328q26 34 26 78 0 78-54 116-52 38-134 38-64 0-104-26-68-42-72-146l0-4 110 0 0 4q0 26 16 54 16 24 54 24 40 0 52-20 16-20 16-44 0-18-16-40-8-12-20-20l-6-4q-6-4-16-11t-20-15-21-17-17-17q-14-20-18-78l0-8 108 0 0 4q0 12 4 28 6 20 28 36l28 18q46 34 56 50z" horiz-adv-x="920" />
<glyph glyph-name="info-circled" unicode="&#xe8e2;" d="M454 810q190 2 326-130t140-322q2-190-131-327t-323-141q-190-2-327 131t-139 323q-4 190 130 327t324 139z m52-152q-42 0-65-24t-23-50q-2-28 15-44t49-16q38 0 61 22t23 54q0 58-60 58z m-120-594q30 0 84 26t106 78l-18 24q-48-36-72-36-14 0-4 38l42 160q26 96-22 96-30 0-89-29t-115-75l16-26q52 34 74 34 12 0 0-34l-36-152q-26-104 34-104z" horiz-adv-x="920" />
<glyph glyph-name="eye" unicode="&#xe87b;" d="M488 695c291 0 488-340 488-340s-196-339-488-339-488 339-488 339 196 340 488 340z m0-579c131 0 239 108 239 239s-108 239-239 239-239-108-239-239 108-239 239-239z m108 239c0-59-50-106-108-106-59 0-106 48-106 106s48 108 106 108 108-50 108-108z" horiz-adv-x="975" />
<glyph glyph-name="eye-1" unicode="&#xe8e9;" d="M500 630q92 0 177-25t141-62 99-77 63-71 20-45-20-44-63-71-99-78-141-62-177-25-177 25-141 62-99 78-63 71-20 44 20 45 63 71 99 77 141 62 177 25z m0-494q92 0 157 63t65 151q0 90-65 153t-157 63-157-63-65-153q0-88 65-151t157-63z m0 214q8-8 37-2t50 11 25-9q0-44-33-75t-79-31-78 31-32 75q0 46 32 77t78 31q14 0 10-23t-12-47 2-38z" horiz-adv-x="1000" />
<glyph glyph-name="tag" unicode="&#xe87c;" d="M665 541l-10-233-243-420c-11-20-36-28-55-16l-336 195c-20 11-28 36-16 56l243 420 198 124 95-54c6 18 5 19 9 36 9 39 18 108 95 166 26 23 66 23 103 4 20-9 38-24 50-40 13-19 19-39 20-58-1-24-13-56-65-81-41-19-76-24-109-28-29-4-51-6-70-19z m-10 259c-70-54-80-115-86-153 0-6-1-10-3-15-1-6 0-10-3-18 23 15 46 16 76 19 30 4 65 9 103 26 35 15 53 38 54 63 0 29-21 59-53 76-1 1-4 3-6 4-30 15-60 15-83-3z m-219-400c43-24 98-10 121 33 20 34 14 75-10 103l-43 26c-38 13-80-4-101-40-24-43-10-96 33-121z" horiz-adv-x="816" />
<glyph glyph-name="tag-1" unicode="&#xe8ea;" d="M944 830q36-106-8-199t-128-157l18-24q16-28 6-54l-48-158q-12-30-36-46l-464-328q-42-30-64 4l-210 304q-12 18-9 39t21 33l464 328q26 18 54 18l158 0q30 0 48-26l28-40q168 130 114 286-10 28 18 40 32 8 38-20z m-216-468q40 32 34 80l-32-16q-8-4-12-4-18 0-28 18-12 30 16 40l24 14q-48 34-92 0-28-18-34-51t14-61q18-26 51-32t59 12z" horiz-adv-x="960" />
<glyph glyph-name="upload-cloud" unicode="&#xe8f2;" d="M760 494q100 0 170-68t70-166-70-166-170-68l-190 0 0 190 106 0-176 230-174-230 104 0 0-190-248 0q-74 0-128 52t-54 124q0 74 53 126t129 52q14 0 20-2-2 12-2 38 0 108 78 184t188 76q90 0 160-52t94-134q28 4 40 4z" horiz-adv-x="1000" />
<glyph glyph-name="reply" unicode="&#xe8f3;" d="M900 10q-86 152-208 197t-330 45l0-218-362 334 362 322 0-192q90 0 168-27t131-70 96-95 69-104 44-95 24-69z" horiz-adv-x="900" />
<glyph glyph-name="reply-all" unicode="&#xe8f4;" d="M362 556l-212-188 212-196 0-138-362 334 362 322 0-134z m250-58q104 0 182-50t115-122 60-144 27-122l4-50q-86 154-168 198t-220 44l0-218-362 334 362 322 0-192z" horiz-adv-x="1000" />
<glyph glyph-name="code" unicode="&#xe8c2;" d="M380 636q16-14 16-32t-16-30l-246-224 246-226q16-12 16-30t-16-32q-30-30-60 0l-320 288 320 286q30 30 60 0z m302 0l318-286-318-288q-32-30-62 0-32 32 0 62l248 226-248 224q-32 30 0 62 30 30 62 0z" horiz-adv-x="1000" />
<glyph glyph-name="export" unicode="&#xe880;" d="M741 223l90 0 0-194c0-33-26-59-59-59l-713 0c-33 0-60 26-60 59l0 503c0 34 28 60 60 60l229 0 0-90-199 0 0-441 651 0 0 163z m-458-28s1 386 284 386l-34 148 331-233-331-236 36 166s-249-1-249-231l-38 0z" horiz-adv-x="865" />
<glyph glyph-name="export-1" unicode="&#xe8f6;" d="M750 60l0 56 100 82 0-188q0-20-15-35t-35-15l-750 0q-20 0-35 15t-15 35l0 550q0 22 14 36t36 14l288 0q-32-24-59-49t-39-39l-10-12-130 0 0-450 650 0z m-82 348q-166 0-242-41t-160-181q0 8 1 22t9 56 22 79 44 83 70 79 107 56 149 23l0 156 332-250-332-260 0 178z" horiz-adv-x="1000" />
<glyph glyph-name="print-1" unicode="&#xe885;" d="M866 564c40 0 75-35 75-78l0-366c0-43-35-78-75-78l-76 0 34-153-691 0 28 153-83 0c-45 0-78 35-78 78l0 366c0 43 33 78 78 78l96 0 0 118 34 0 0 129 528 0 0-129 34 0 0-118 98 0z m-624 199l0-291 458 0 0 291-458 0z m-113-389c30 0 55 24 55 54 0 29-25 54-55 54-29 0-54-25-54-54 0-30 25-54 54-54z m63-438l568 0-48 241-484 0z m253 113l-139 0 0 35 139 0 0-35z m198 0l-139 0 0 35 139 0 0-35z" horiz-adv-x="941" />
<glyph glyph-name="print-2" unicode="&#xe8f9;" d="M66 526q-26 0-22 22 4 10 12 14 2 0 49 17t93 32 58 15l44 0 0 150 380 0 0-150 46 0q12 0 57-15t92-32 49-17q18-8 12-26-4-10-20-10l-850 0z m860-56q20 0 37-19t17-41l0-174q0-22-17-41t-37-19l-100 0 44-250-760 0 44 250-98 0q-20 0-38 19t-18 41l0 174q0 22 18 41t38 19l870 0z m-716-444l560 0-70 324-420 0z" horiz-adv-x="980" />
<glyph glyph-name="retweet" unicode="&#xe8fa;" d="M250 190l272 0 128-140-448 0q-42 0-71 30t-29 70l0 302-102 0 176 198 174-198-100 0 0-262z m650 60l100 0-174-200-176 200 102 0 0 260-274 0-128 140 450 0q40 0 70-29t30-71l0-300z" horiz-adv-x="1000" />
<glyph glyph-name="comment" unicode="&#xe8fc;" d="M700 700q42 0 71-29t29-71l0-350q0-40-29-70t-71-30l-200 0 0-150-200 150-200 0q-40 0-70 30t-30 70l0 350q0 42 30 71t70 29l600 0z" horiz-adv-x="800" />
<glyph glyph-name="chat" unicode="&#xe884;" d="M85 749l608 0c58 0 84-26 84-85l0-388c0-55-26-81-84-81l-274 0-303-244 63 244-94 0c-58 0-85 26-85 84l0 385c0 59 28 86 85 85z m75-158l0-83 456 0 0 83-456 0z m456-239l0 83-456 0 0-83 456 0z" horiz-adv-x="776" />
<glyph glyph-name="chat-1" unicode="&#xe8fd;" d="M290 240l350 0q2 0 6 2l4 0 0-92q0-40-29-70t-71-30l-250 0-150-150 0 150-50 0q-40 0-70 30t-30 70l0 300q0 42 30 71t70 29l190 0 0-310z m610 560q42 0 71-29t29-71l0-300q0-40-29-70t-71-30l-50 0 0-150-150 150-350 0 0 400q0 42 30 71t70 29l450 0z" horiz-adv-x="1000" />
<glyph glyph-name="vcard" unicode="&#xe901;" d="M900 750q42 0 71-29t29-71l0-600q0-40-29-70t-71-30l-800 0q-40 0-70 30t-30 70l0 600q0 42 30 71t70 29l800 0z m0-700l0 600-800 0 0-600 800 0z m-450 196l0-90-250 0 0 90 250 0z m0 150l0-90-250 0 0 90 250 0z m0 150l0-90-250 0 0 90 250 0z m346-320l4-70-250 0q0 70 6 70 84 22 84 66 0 16-27 56t-27 88q0 110 90 110t90-110q0-48-28-88t-28-56q0-20 21-36t43-22z" horiz-adv-x="1000" />
<glyph glyph-name="address" unicode="&#xe902;" d="M426 800q20 0 20-20l0-860q0-20-20-20l-46 0q-20 0-20 20l0 440-176 0q-16 0-28 6-12 2-26 12l-120 82q-10 6-10 16t10 16l120 82q14 10 26 12 8 4 28 4l176 0 0 190q0 20 20 20l46 0z m564-208q10-6 10-16t-10-16l-118-82q-22-12-26-12-14-6-28-6l-302 0-40 230 342 0q18 0 28-4t26-12z" horiz-adv-x="1000" />
<glyph glyph-name="location-1" unicode="&#xe903;" d="M250 750q104 0 177-73t73-177q0-106-62-243t-126-223l-62-84q-10 12-27 35t-60 89-76 130-60 147-27 149q0 104 73 177t177 73z m0-388q56 0 96 40t40 96-40 95-96 39-95-39-39-95 39-96 95-40z" horiz-adv-x="500" />
<glyph glyph-name="location" unicode="&#xe88a;" d="M540 506c0-104-80-205-133-281-113-161-129-298-129-298-3-11-13-11-15 0 0 0-21 136-131 298-91 128-133 178-133 281 0 149 119 268 269 268 149 0 271-119 271-268z m-269-111c59 0 104 49 104 106s-45 103-104 103c-55 0-101-45-101-103s46-106 101-106z" horiz-adv-x="540" />
<glyph glyph-name="map" unicode="&#xe904;" d="M984 600q16-10 16-30l0-584q0-20-16-30-8-6-16-6t-18 6l-216 136-216-136q-18-10-34 0l-218 136-216-136q-16-10-34 0-16 10-16 30l0 584q0 20 16 30l234 146q18 10 34 0l216-136 218 136q16 10 32 0z m-750-450l0 506-168-104 0-506z m234-104l0 506-168 104 0-506z m234 104l0 506-170-104 0-506z m232-104l0 506-168 104 0-506z" horiz-adv-x="1000" />
<glyph glyph-name="compass" unicode="&#xe906;" d="M474 830q198 2 340-136t146-336q2-200-136-342t-338-146q-198-2-341 137t-145 337q-4 200 135 342t339 144z m12-858q156 2 266 114t108 270-115 267-269 107q-158-2-267-114t-107-270 114-267 270-107z m-234 154q4 26 12 66t41 128 77 132 125 76 141 42l60 10q-4-26-12-66t-41-128-77-132q-42-42-124-74t-142-42z m180 276q-22-20-22-48t22-50q20-22 49-22t49 22q52 52 88 186-136-36-186-88z" horiz-adv-x="960" />
<glyph glyph-name="trash" unicode="&#xe88b;" d="M769 739c24 0 45-20 45-45s-21-45-45-45l-6 0-135-688-438 0-134 688-11 0c-25 0-45 20-45 45s20 45 45 45l724 0z m-396-108l-19 18-118 0-19-18 78-78z m-194-258l25-129 60 60-78 76z m39 40l78-78 78 78-78 76z m186-33l-76-76 76-78 78 78z m33 33l76-78 78 78-78 76z m-33 31l78 78-78 76-76-76z m-218 154l-44-43 18-85 26-26 78 78z m109-326l-78-78 78-76 78 76z m109-109l-76-78 58-58 38 0 59 58z m109-45l78 76-78 78-76-78z m100 118l25 129-16 16-76-76z m49 248l13 64-53 51-76-76 76-78z m-71 148l-19 18-118 0-18-18 76-78z m-458-23l40 40-48 0z m96-488l18-93 75 0z m364 13l-106-105 85 0z m91 468l10 48-59 0z" horiz-adv-x="814" />
<glyph glyph-name="trash-1" unicode="&#xe908;" d="M50 458q122-70 330-70t330 70l-54-486q-2-14-35-36t-100-43-141-21-140 21-100 43-36 36z m488 300q94-18 158-55t64-71l0-10q0-58-112-99t-268-41-268 41-112 99l0 10q0 34 64 71t158 55l42 48q22 26 70 26l92 0q52 0 70-26z m-54-112l84 0q-92 110-104 126-14 16-32 16l-102 0q-22 0-32-16l-106-126 84 0 64 66 82 0z" horiz-adv-x="760" />
<glyph glyph-name="doc-1" unicode="&#xe909;" d="M600 800q42 0 71-29t29-71l0-700q0-40-29-70t-71-30l-500 0q-40 0-70 30t-30 70l0 700q0 42 30 71t70 29l500 0z m0-800l0 700-500 0 0-700 500 0z" horiz-adv-x="700" />
<glyph glyph-name="doc-text-inv" unicode="&#xe90d;" d="M600 800q42 0 71-29t29-71l0-700q0-40-29-70t-71-30l-500 0q-40 0-70 30t-30 70l0 700q0 42 30 71t70 29l500 0z m-460-208l0-88 420 0 0 88-420 0z m420-480l0 88-420 0 0-88 420 0z m0 196l0 90-418 0 0-90 418 0z" horiz-adv-x="700" />
<glyph glyph-name="article" unicode="&#xe88d;" d="M696 661l0-81-696 0 0 81 696 0z m-183-180l0-81-514 0 0 81 514 0z m183-180l0-81-696 0 0 81 696 0z m-183-180l0-81-514 0 0 81 514 0z" horiz-adv-x="696" />
<glyph glyph-name="article-alt" unicode="&#xe88e;" d="M133 722l826 0 0-631c0-59-51-111-105-111l-718 0c-89 0-136 46-136 159l0 461 133 0 0 123z m0-584l0 394-65 0 0-394c0-58 14-85 31-85 21 0 34 28 34 85z m759-48l0 564-691 0 0-516c0-40-8-69-19-91l673 0c23 0 38 26 38 44z m-425 135l0-23-159 0 0 23 159 0z m0-71l0-23-159 0 0 23 159 0z m63 31l0 254 266 0 0-254-266 0z m-63 180l0-23-159 0 0 23 159 0z m0-71l0-23-159 0 0 23 159 0z m0 145l0-23-159 0 0 23 159 0z m-135 73l0 44 416 0 0-44-416 0z" horiz-adv-x="959" />
<glyph glyph-name="docs" unicode="&#xe90a;" d="M970 480q38-10 30-46l-150-556q-4-16-18-23t-30-3l-406 110q-16 4-24 18t-4 28l24 92-180-48q-40-10-50 26l-160 602q-10 36 28 48l454 122q16 4 30-3t18-23l66-244z m-888 190l144-542 392 106-144 540z m702-742l132 492-298 82 76-282q10-34-28-46l-196-52-26-102z" horiz-adv-x="1001" />
<glyph glyph-name="doc-landscape" unicode="&#xe90b;" d="M0 600q0 42 30 71t70 29l800 0q42 0 71-29t29-71l0-500q0-40-29-70t-71-30l-800 0q-40 0-70 30t-30 70l0 500z m900 0l-800 0 0-500 800 0 0 500z" horiz-adv-x="1000" />
<glyph glyph-name="archive" unicode="&#xe912;" d="M840 600l0-50-696 0 0 50q0 22 13 35t25 15l608 0q6 0 14-1t22-14 14-35z m-148 150q6 0 14-1t22-14 14-35l-498 0q0 22 13 35t25 15l410 0z m248-200q34-32 38-46 6-18 0-54l-76-450q-4-22-20-35t-28-15l-710 0q-52 0-60 50-6 26-39 223t-39 227q-10 22-3 44t10 26 21 20l10 10 30 30 0-80 836 0 0 80z m-248-270l0 100-70 0 0-80-260 0 0 80-68 0 0-100q0-50 48-50l300 0q22 0 35 12t13 24z" horiz-adv-x="981" />
<glyph glyph-name="rss-1" unicode="&#xe88f;" d="M184 93c0-51-43-91-93-91s-91 40-91 91c0 50 41 91 91 91s93-41 93-91z m261-85l-125 0c0 174-140 323-315 323l0 119c231 0 440-164 440-441z m259 0l-136 0c0 300-261 561-563 561l0 129c370 0 699-281 699-690z" horiz-adv-x="704" />
<glyph glyph-name="rss-2" unicode="&#xe914;" d="M0 730q314 0 537-223t223-537l-118 0q0 266-188 453t-454 187l0 120z m0-238q218 0 371-153t153-369l-118 0q0 166-119 285t-287 119l0 118z m114-296q46 0 80-33t34-81q0-46-34-79t-80-33-80 33-34 79q0 48 34 81t80 33z" horiz-adv-x="760" />
<glyph glyph-name="share" unicode="&#xe918;" d="M650 200q62 0 106-43t44-107q0-62-44-106t-106-44-106 44-44 106q0 6 1 14t1 12l-260 156q-42-32-92-32-62 0-106 44t-44 106 44 106 106 44q54 0 92-30l260 156q0 4-1 12t-1 12q0 62 44 106t106 44 106-43 44-107q0-62-44-106t-106-44q-52 0-90 32l-262-156q2-8 2-26 0-16-2-24l262-156q36 30 90 30z" horiz-adv-x="800" />
<glyph glyph-name="basket" unicode="&#xe891;" d="M139 76c45 0 79-35 79-79 0-43-34-78-79-78-43 0-78 35-78 78 0 44 35 79 78 79z m530 0c44 0 78-35 78-79 0-43-34-78-78-78s-79 35-79 78c0 44 35 79 79 79z m-478 589l565 0c38 0 55-23 55-50l0-234c0-26-20-48-46-50l-505-56c-41-5-46-59 3-59l479 0c55 0 55-81 0-81l-489 0c-110 0-151 121-65 185l44 33-155 339-76 0c-59 0-59 90 0 90l89 0c45 0 58-21 71-54z m345-70l-130 0 26-85 124 0z m-313 0l39-85 126 0-28 85-138 0z m109-241l100 10-33 101-119 0z m144 15l113 11-25 85-119 0z m266 29l0 68-133 0 20-79z m0 113l0 85-161 0 19-85 143 0z" horiz-adv-x="811" />
<glyph glyph-name="basket-1" unicode="&#xe91a;" d="M150 0q0 40 30 70t70 30q42 0 71-30t29-70q0-42-29-71t-71-29q-40 0-70 29t-30 71z m500 0q0 40 30 70t70 30q42 0 71-30t29-70q0-42-29-71t-71-29q-40 0-70 29t-30 71z m-322 236q-36-10-34-23t44-13l562 0 0-76q0-20-20-20l-654 0q-20 0-20 20l0 76-10 46-98 454-98 0 0 80q0 20 20 20l156 0q20 0 20-20l0-86 704 0 0-274q0-22-18-26z" horiz-adv-x="900" />
</font>
</defs>
</svg>
